<?xml version="1.0" encoding="UTF-8" standalone="no"?>
<!-- Created with Inkscape (http://www.inkscape.org/) -->

<svg
   version="1.1"
   id="svg1"
   width="127.5632mm"
   height="143.02107mm"
   viewBox="0 0 482.12864 540.55212"
   sodipodi:docname="CP_shield_F.Mask.svg"
   inkscape:version="1.4 (e7c3feb1, 2024-10-09)"
   xmlns:inkscape="http://www.inkscape.org/namespaces/inkscape"
   xmlns:sodipodi="http://sodipodi.sourceforge.net/DTD/sodipodi-0.dtd"
   xmlns="http://www.w3.org/2000/svg"
   xmlns:svg="http://www.w3.org/2000/svg">
  <sodipodi:namedview
     id="namedview1"
     pagecolor="#ffffff"
     bordercolor="#000000"
     borderopacity="0.25"
     inkscape:showpageshadow="2"
     inkscape:pageopacity="0.0"
     inkscape:pagecheckerboard="0"
     inkscape:deskcolor="#d1d1d1"
     inkscape:document-units="mm"
     inkscape:zoom="1.9073093"
     inkscape:cx="97.519581"
     inkscape:cy="270.27604"
     inkscape:window-width="1200"
     inkscape:window-height="1186"
     inkscape:window-x="2240"
     inkscape:window-y="25"
     inkscape:window-maximized="0"
     inkscape:current-layer="svg1" />
  <defs
     id="defs1" />
  <g
     id="layer10"
     style="display:inline">
    <path
       d="m 359.59131,219.12228 c 1.22694,-0.38529 16.47279,-6.19344 57.07406,-21.91293 l -0.007,0.002 c 0.002,0 0.008,-0.002 0.008,-0.002 l -34.39988,23.72919 h -0.0122 -0.002 l -22.67882,-1.79904 c 0.007,-0.006 0.0301,-0.0129 0.0417,-0.0166 z m 65.97174,-41.53026 c -1.13236,0 -95.49207,37.49171 -98.8102,37.55677 -2.14524,-0.52692 -35.59501,-8.72729 -57.51953,-14.09495 -6.95758,3.86061 -7.94059,4.40637 -26.81088,14.88635 -53.51196,-0.29321 21.50082,-0.0696 -25.3469,-0.22323 -41.96103,-0.14506 -90.54359,2.81409 -98.82164,3.37937 l 1.73772,-48.43899 98.7567,38.39432 c 0.35384,-1.13417 0.68532,-2.10812 1.1786,-3.40884 0.36657,-0.96342 0.7633,-1.92193 1.18324,-2.86814 0.19659,-0.44455 0.81233,-1.8229 1.54982,-3.23436 l -101.73801,-54.79459 0.43386,-12.09685 c 12.06676,-1.34191 28.32359,-3.07704 47.5246,-4.7655 l 61.80937,59.99513 c 0.92378,-1.04267 1.82883,-1.96166 2.42912,-2.55848 0.71923,-0.70536 1.46165,-1.39351 2.22033,-2.06201 0.95276,-0.83306 1.8169,-1.54057 2.70288,-2.22914 l -40.93555,-55.40414 c 9.6678,-0.6906 19.8135,-1.33206 30.32118,-1.8826 l 22.53497,50.31667 c 1.02538,-0.43163 1.94821,-0.7904 3.2226,-1.22884 0.93964,-0.32443 1.88158,-0.61445 2.83048,-0.87987 0.45631,-0.12793 1.82997,-0.50723 3.3363,-0.81842 l -10.58423,-48.35787 c 8.16932,-0.31798 18.45053,-0.61567 28.26093,-0.77909 l -4.1019,48.17844 c 0.94193,0.0569 1.80773,0.12996 3.41053,0.33172 0.97675,0.13032 1.94655,0.28756 2.90937,0.47188 1.15689,0.22295 1.98593,0.4002 3.3502,0.75698 l 13.98084,-49.91113 c 3.74565,0 14.46053,0.009 28.72035,0.35391 l -30.01723,54.73808 c 1.02701,0.58153 1.96644,1.16206 2.96274,1.82362 0.82827,0.55052 1.64495,1.12316 2.4477,1.72038 0.8958,0.64665 2.0727,1.63035 2.73776,2.18437 15.73537,-19.9778 31.71984,-39.75439 47.61043,-59.59945 18.47947,0.7963 36.1933,1.90964 52.41998,3.14342 l -90.61784,66.83492 c 0.33874,0.48417 0.67284,0.97572 0.99765,1.47462 0.14965,0.22586 0.97874,1.48477 1.72614,2.80179 0.31043,0.5355 0.84247,1.46091 1.58925,2.94679 0.26914,0.53825 0.5313,1.07649 0.78186,1.61717 L 445.4554,129.88332 c 7.3803,0.74168 15.40956,1.60005 21.50951,2.29305 l 2.42945,83.99836"
       style="display:inline;fill:#000000;fill-opacity:1;fill-rule:nonzero;stroke:none;stroke-width:0.238791"
       id="path193"
       transform="translate(-56.408479,-4.8010866)" />
    <rect
       style="display:none;fill:none;fill-opacity:1;stroke:#000000;stroke-width:2.08252;stroke-linejoin:round;stroke-dasharray:none;stroke-opacity:1"
       id="rect200"
       width="480.04614"
       height="538.4696"
       x="57.449741"
       y="5.8423467"
       transform="translate(-56.408479,-4.8010866)" />
  </g>
</svg>
