<?xml version="1.0" encoding="UTF-8" standalone="no"?>
<!-- Created with Inkscape (http://www.inkscape.org/) -->

<svg
   version="1.1"
   id="svg1"
   width="127.5632mm"
   height="143.02107mm"
   viewBox="0 0 482.12864 540.55212"
   xmlns="http://www.w3.org/2000/svg"
   xmlns:svg="http://www.w3.org/2000/svg">
  <defs
     id="defs1" />
  <g
     id="layer4"
     style="display:none;opacity:0.5"
     transform="matrix(1.8432813,0,0,1.8432813,-207.78463,-82.781717)">
    <path
       id="path9-3"
       d="M 288.40933,221.19333 277.452,209.344 l 6.45066,-6.06133 -6.888,-7.35067 -4.09733,3.848 0.58534,5.94133 -14.58934,-15.57466 -5.51733,-0.17067 -12.16267,10.80667 -0.16,5.17733 11.72667,12.72533 -0.60267,0.56534 -2.224,2.08933 -14.19733,13.65333 -41.58533,-44.90933 -3.01867,-3.02533 -0.696,21.67866 c -0.10667,3.41467 0.516,5.54134 1.812,7.34667 0.15333,0.21467 0.31467,0.428 0.48667,0.63733 1.57066,1.88 3.24133,3.532 6.792,4.96267 6.33066,2.556 13.632,2.94933 13.70533,2.95333 l 3.28533,0.16 -2.88533,1.57867 c -0.024,0.0133 -0.18933,0.0973 -0.44,0.20533 -0.94267,0.40667 -3.43867,1.27867 -7.38667,1.156 -2.59333,-0.0813 -5.6,-0.52266 -8.94933,-1.31466 0.57067,0.62933 1.26133,1.33866 2.07067,2.13733 0.18133,0.176 0.35866,0.35067 0.55066,0.53733 3.432,3.31867 7.05067,4.532 11.772,5.41467 4.40134,0.82533 12.62534,1.972 12.69734,1.98133 l 2.84933,0.39867 -2.296,1.208 -0.248,0.132 c -0.11733,0.0627 -2.93867,1.52667 -7.94933,1.37067 -3.33867,-0.10267 -6.22667,-0.66 -8.252,-1.18 l 1.55066,1.68933 0.588,0.64267 c 1.74667,1.9 4.74,3.44933 9.15067,4.73733 1.276,0.372 2.58533,0.692 3.85867,0.972 4.56533,1.00133 8.63066,1.428 8.68133,1.43333 l 2.96133,0.30534 -1.74266,0.95333 -0.86934,0.476 c -0.324,0.176 -3.296,1.70533 -8.53333,1.38 -1.508,-0.0933 -3.06533,-0.31467 -4.644,-0.652 -0.016,-0.003 -0.0307,-0.004 -0.0467,-0.008 l 0.0253,0.028 -20.57467,19.328 6.89733,7.34133 L 226.4586,257.26 c 4.21866,2.32 11.128,4.508 16.788,4.684 l 9.1,0.308 15.44533,16.028 8.092,0.008 -33.42133,-36.06667 14.63733,-13.752 2.05067,-1.928 0.49333,-0.464 0.38133,-0.35866 10.932,11.75333 5.51867,0.172 12.16133,-10.80933 0.16,-5.176 -0.388,-0.46534"
       style="fill:#0e3530;fill-opacity:1;fill-rule:nonzero;stroke:none;stroke-width:0.133333" />
    <path
       id="path10-0"
       d="m 237.37733,77.49067 c 0,-0.452 -0.11333,-0.785333 -0.35066,-1.021333 -0.34667,-0.342667 -0.984,-0.509334 -1.952,-0.509334 h -0.0707 l -1.55867,0.01467 v 3.297333 l 1.528,-0.01467 c 1.596,-0.01333 2.404,-0.608 2.404,-1.766667"
       style="fill:#0e3530;fill-opacity:1;fill-rule:nonzero;stroke:none;stroke-width:0.133333" />
    <path
       id="path11-4"
       d="m 196.91333,79.160003 c 0,-0.594666 -0.14666,-1.022666 -0.44933,-1.308 -0.42133,-0.398666 -1.16667,-0.554666 -2.344,-0.486666 l -1.70533,0.09733 V 81.672 l 1.68,-0.09733 c 1.87066,-0.106667 2.81866,-0.918667 2.81866,-2.414667"
       style="fill:#0e3530;fill-opacity:1;fill-rule:nonzero;stroke:none;stroke-width:0.133333" />
    <path
       id="path12-8"
       d="m 238.196,84.27867 c 0.001,-0.510667 -0.13467,-0.893334 -0.416,-1.172 -0.42667,-0.424 -1.20667,-0.630667 -2.38133,-0.630667 h -0.08 l -1.87334,0.01733 v 3.829334 l 1.87067,-0.01733 c 1.93867,-0.01467 2.88,-0.677333 2.88,-2.026666"
       style="fill:#0e3530;fill-opacity:1;fill-rule:nonzero;stroke:none;stroke-width:0.133333" />
    <path
       id="path13-5"
       d="m 290.29866,87.625336 c 0.796,0.056 1.51467,-0.197333 2.08,-0.730666 0.88534,-0.837334 1.37334,-2.348 1.372,-4.256 0,-3.182667 -1.3,-5.158667 -3.47733,-5.282667 -0.0693,-0.0053 -0.13867,-0.0067 -0.20533,-0.0067 -0.75734,0 -1.40134,0.246666 -1.92134,0.737333 -0.864,0.816 -1.324,2.244 -1.32666,4.129333 0.003,3.213333 1.336,5.286667 3.47866,5.409333"
       style="fill:#0e3530;fill-opacity:1;fill-rule:nonzero;stroke:none;stroke-width:0.133333" />
    <path
       id="path14-5"
       d="m 274.14667,85.66667 c 0.828,-0.8 1.248,-2.133334 1.24666,-3.958667 0.005,-3.409333 -1.428,-5.046666 -4.5,-5.153333 L 270.41467,76.54 v 10.09467 l 0.49333,0.016 c 1.436,0.052 2.50133,-0.272 3.23867,-0.984"
       style="fill:#0e3530;fill-opacity:1;fill-rule:nonzero;stroke:none;stroke-width:0.133333" />
    <path
       id="path15"
       d="m 292.12666,55.553337 c -0.548,-0.03333 -1.09733,-0.06533 -1.64933,-0.09733 -12.02,-0.694667 -24.97866,-1.222667 -38.17466,-1.396 -0.33334,-0.004 -0.668,-0.008 -1.00267,-0.012 -0.33467,-0.0053 -0.66933,-0.008 -1.00267,-0.012 -2.36533,-0.024 -4.73466,-0.036 -7.11066,-0.036 -1.47467,0 -2.948,0.004 -4.424,0.01333 -0.32934,0.0027 -0.66,0.0053 -0.98934,0.0067 -0.33066,0.004 -0.65866,0.0067 -0.98933,0.0093 -11.40533,0.106667 -22.78133,0.484 -33.63733,1.013334 -0.33467,0.01733 -0.66667,0.03333 -0.99867,0.05067 -0.33333,0.016 -0.66667,0.03333 -1,0.04933 -4.068,0.206667 -8.05867,0.434667 -11.944,0.676 -0.34133,0.02267 -0.684,0.04267 -1.024,0.06533 -0.34267,0.02133 -0.68267,0.04267 -1.02267,0.064 C 154.01733,58.073337 129,61.17467 129,61.17467 v 29.7 l 0.34934,23.44533 0.016,1.11334 0.001,0.0933 0.0147,1.02 0.176,11.81867 0.0173,1.05466 0.0147,1.05467 0.86533,58.21466 c -0.17067,20.34 4.85867,38.69467 12.84266,54.968 22.972,46.832 70.40934,76.42933 88.80934,86.556 l 7.85733,4.04133 7.46933,-4.04133 c 19.14267,-10.21467 68.64533,-40.15467 92.436,-87.504 8.04,-16.00266 13.14533,-33.99333 13.14533,-53.884 l 1.07467,-73.30399 0.4,-27.281337 V 61.17467 c 0,0 -26.908,-3.512 -62.36267,-5.621333 m 38.03067,23.656 c 1.49867,-1.341334 3.56933,-1.944 5.82667,-1.686667 2.62,0.290667 4.36266,1.697333 5.36266,2.825333 l 0.13334,0.152 -2.268,2.505333 -0.16934,-0.173333 c -0.82666,-0.857333 -1.65066,-1.458666 -2.98533,-1.608 -1.06533,-0.116 -2.01067,0.150667 -2.71733,0.784 -0.90667,0.812 -1.38667,2.141333 -1.38534,3.845333 0,3.388 1.54,5.350667 4.45334,5.677334 0.58,0.06533 1.148,-0.01333 1.5,-0.198667 V 88.79867 c -0.848,-0.09733 -1.69334,-0.192 -2.54,-0.285334 l -0.20134,-0.02267 v -3.518667 l 0.252,0.02933 c 2.02134,0.224 4.04134,0.454667 6.06134,0.694667 l 0.20133,0.024 v 7.953333 l -0.0787,0.06667 c -1.10133,0.952 -2.80933,1.492 -4.62,1.492 -0.33466,0 -0.67333,-0.01867 -1.012,-0.056 -5.04933,-0.565333 -8.308,-4.332 -8.304,-9.596 0,-2.710667 0.86,-4.913333 2.49067,-6.370666 m -19.321,-3.814663 0.244,0.02 c 1.28,0.105333 2.56133,0.213333 3.84266,0.325333 l 0.12667,0.0093 0.0573,0.113333 c 1.44,2.876 2.88134,5.754667 4.32267,8.637333 l 1.18667,2.752 c 0,-0.0013 0,-0.0053 0,-0.0093 -0.168,-1.574667 -0.35867,-3.358667 -0.356,-4.914667 v -6.110666 l 0.248,0.02267 c 1.18933,0.110667 2.37866,0.225334 3.56933,0.341334 l 0.204,0.02 v 17.043996 l -0.2493,-0.02267 c -1.27867,-0.125334 -2.55734,-0.246667 -3.83734,-0.365334 l -0.124,-0.012 -0.056,-0.113333 c -1.44533,-2.9 -2.884,-5.784 -4.32266,-8.662667 l -1.19334,-2.74 c 0.008,0.064 0.0133,0.128 0.0213,0.190667 0.16,1.506667 0.34,3.213333 0.34,4.724 v 6.134667 l -0.24534,-0.02133 c -1.19066,-0.104 -2.38,-0.202666 -3.572,-0.301333 l -0.20666,-0.016 z m -9.352,-0.712 0.244,0.01733 c 1.25066,0.08933 2.50266,0.181334 3.74933,0.274667 l 0.21067,0.016 v 17.044 l -0.24267,-0.01867 C 304.196,91.92267 302.94666,91.83067 301.696,91.74267 L 301.484,91.728 Z m -16.576,0.757333 c 1.36133,-1.285333 3.21066,-1.893333 5.39066,-1.776 4.71067,0.270667 7.75334,3.889334 7.75067,9.22 -10e-4,2.862667 -0.83733,5.164 -2.41867,6.656 -1.248,1.177333 -2.90933,1.793333 -4.828,1.793333 -0.17466,0 -0.35066,-0.0053 -0.52933,-0.016 -4.71067,-0.269333 -7.75467,-3.917333 -7.75467,-9.297333 10e-4,-2.830666 0.82934,-5.106666 2.38934,-6.58 m -18.70267,-2.505333 0.23334,0.0067 c 1.56533,0.04533 3.132,0.09467 4.69866,0.148 5.51867,0.193333 8.55867,3.310666 8.55733,8.778666 0,2.76 -0.74666,4.88 -2.22,6.304 -1.36,1.310667 -3.26533,1.976 -5.67066,1.976 -0.15467,0 -0.31333,-0.004 -0.47333,-0.0093 -1.636,-0.056 -3.27067,-0.106667 -4.90534,-0.154667 l -0.22,-0.0067 z m -22.44933,-0.348 c 1.33867,0.004 2.67733,0.0093 4.01733,0.01867 h 0.15334 l 0.0573,0.142666 c 0.496,1.274667 0.99067,2.550667 1.484,3.825334 0.28267,0.792 0.55867,1.538666 0.844,2.308 l 0.35067,0.950666 c 0.17733,-0.469333 0.356,-0.922666 0.53066,-1.374666 0.24,-0.612 0.47734,-1.218667 0.70934,-1.850667 l 1.54266,-3.942667 0.156,0.0027 c 1.30934,0.01733 2.61734,0.03867 3.92534,0.06267 l 0.352,0.0053 -0.15067,0.318667 c -1.66,3.512 -3.32133,7.028 -4.98533,10.549333 v 6.096 l -0.228,-0.004 c -1.252,-0.016 -2.50134,-0.02933 -3.75467,-0.03867 l -0.22533,-0.0027 V 83.56267 c -1.66134,-3.557333 -3.32267,-7.106667 -4.98534,-10.652 l -0.15066,-0.324 z m -14.52133,0.09333 0.224,-0.0027 c 1.89733,-0.02933 3.79066,-0.05067 5.68933,-0.06533 2.51067,-0.01333 4.26133,0.466667 5.29467,1.496 0.70533,0.698667 1.06266,1.646667 1.06266,2.818667 0,1.512 -0.78666,2.948 -1.92,3.6 1.74667,0.613333 2.73734,2.044 2.73734,3.988 -10e-4,3.185333 -2.504,5.105333 -6.69734,5.136 -2.052,0.01467 -4.10666,0.03733 -6.16133,0.068 l -0.22933,0.004 z m -24.59734,0.724 0.216,-0.01067 c 1.284,-0.05467 2.56667,-0.109334 3.85067,-0.158667 l 0.14133,-0.0053 0.0667,0.125333 c 1.444,2.693333 2.88933,5.390667 4.33467,8.092 l 1.20266,2.629333 c -0.17066,-1.58 -0.36533,-3.370666 -0.36666,-4.954666 v -6.08 l 0.22133,-0.008 c 1.19333,-0.03867 2.384,-0.07467 3.57867,-0.109334 l 0.23333,-0.004 v 17.041333 l -0.22133,0.0067 c -1.28134,0.036 -2.564,0.07467 -3.84667,0.117333 l -0.14,0.004 -0.068,-0.124 c -1.444,-2.708 -2.888,-5.414666 -4.33333,-8.117333 l -1.208,-2.618666 c 0.009,0.09067 0.02,0.182666 0.028,0.276 0.16133,1.481333 0.34133,3.161333 0.34266,4.669333 v 6.104 l -0.21733,0.0093 c -1.19333,0.04667 -2.38533,0.096 -3.57867,0.148 l -0.236,0.0093 z m -16.428,0.882667 0.21334,-0.01333 c 1.99066,-0.126667 3.984,-0.246667 5.97866,-0.358667 2.38667,-0.133333 4.17334,0.333333 5.28667,1.388 0.904,0.853333 1.36,2.088 1.36,3.669333 -0.001,2.276 -1.028,4.017333 -2.86667,5.033333 1.212,2.076 2.42267,4.156 3.63467,6.238667 l 0.188,0.322667 -0.37333,0.01867 c -1.39734,0.06533 -2.79867,0.136 -4.19734,0.209334 l -0.14266,0.008 -0.0693,-0.125334 c -1.03333,-1.892 -2.06666,-3.784 -3.1,-5.672 -0.56933,0.032 -1.13866,0.06533 -1.70666,0.09733 v 5.970666 l -0.21334,0.01333 c -1.252,0.07333 -2.50133,0.149333 -3.75066,0.226666 l -0.24134,0.01733 z m -18.144,18.078666 C 171.79867,86.688 173.536,81.016 175.27067,75.350667 l 0.0453,-0.148 0.15467,-0.012 c 1.49466,-0.117333 2.992,-0.230667 4.488,-0.338667 l 0.17733,-0.01467 0.056,0.170666 5.296,16.5 -0.28933,0.01867 c -1.32134,0.088 -2.644,0.181333 -3.96667,0.274666 l -0.18933,0.01467 -1.02,-3.878667 c -1.568,0.114667 -3.13734,0.234667 -4.704,0.357334 -0.32934,1.292 -0.65734,2.584 -0.98534,3.877333 l -0.0387,0.157333 -0.16267,0.012 c -1.27733,0.104 -2.55467,0.208 -3.83067,0.317334 l -0.33466,0.028 z m -13.49466,-15.474666 0.20266,-0.02133 c 3.46267,-0.349334 6.956,-0.68 10.38134,-0.984 l 0.24666,-0.02133 v 3.601334 l -0.20666,0.01733 c -2.14267,0.190667 -4.28534,0.388 -6.42667,0.593333 v 2.876 c 1.79867,-0.173333 3.59867,-0.34 5.39867,-0.501333 l 0.24666,-0.02267 v 3.601333 l -0.20533,0.01867 c -1.81467,0.162667 -3.628,0.330667 -5.44,0.506667 v 3.365333 c 2.212,-0.212 4.42533,-0.417333 6.64,-0.613333 l 0.248,-0.02133 v 3.601334 l -0.208,0.01733 c -3.484,0.306667 -7.06,0.646667 -10.628,1.006667 l -0.24933,0.024 z m -14.49467,1.590667 0.2,-0.02267 c 1.24533,-0.148 2.49333,-0.292 3.73867,-0.434667 l 0.25466,-0.028 v 13.444 c 2.09067,-0.238667 4.18267,-0.468 6.27867,-0.689333 l 0.24933,-0.028 v 3.602666 l -0.20266,0.02267 c -3.432,0.362667 -6.88534,0.750666 -10.26534,1.150666 l -0.25333,0.02933 z M 341.83466,197.12533 c -0.32133,3.84267 -0.98266,8.90667 -2.31733,14.82134 -1.79067,7.93733 -4.8,17.40133 -9.82533,27.48 -5.452,10.93866 -13.28,22.59866 -24.51867,33.81866 -34.808,34.85333 -65.528,42.892 -65.528,42.892 0,0 -28.72266,-8.99333 -62.25866,-42.50666 -11.28267,-11.28134 -19.168,-22.88 -24.684,-33.69067 -4.55467,-8.924 -7.492,-17.308 -9.38267,-24.536 -1.38133,-5.27867 -2.20533,-9.93867 -2.69333,-13.73867 -0.86267,-6.71733 -0.68133,-10.75066 -0.68133,-10.75066 0,0 0.22933,-0.132 0.68133,-0.36667 2.19333,-1.13733 9.752,-4.77867 23.04533,-8.376 8.96933,-2.45467 20.54667,-4.908 34.83867,-6.59333 11.21866,-1.32134 24.11066,-2.17067 38.728,-2.17067 7.04266,0 13.756,0.17333 20.13866,0.48267 50.38667,2.43733 79.88133,13.368 84.16533,15.05466 0.36267,0.14134 0.54934,0.22134 0.54934,0.22134 0,0 0.16,2.93733 -0.25734,7.95866 M 279.32133,161.184 c 0.252,-0.0747 1.21333,-0.412 2.65467,-0.92667 7.88666,-2.824 30.14533,-10.96133 30.14533,-10.96133 l -0.004,0.001 c 0.001,0 0.005,-0.001 0.005,-0.001 L 292.353,162.16933 h -0.007 -10e-4 l -13.03333,-0.976 c 0.004,-0.003 0.0173,-0.007 0.024,-0.009 z m 63.11067,-1.60267 c 0,-0.003 -0.003,-0.004 -0.004,-0.005 -0.0533,-0.0307 -0.11867,-0.076 -0.176,-0.10933 -0.17867,-0.112 -0.36134,-0.22534 -0.56667,-0.36267 h -0.024 c -7.992,-5.49333 -23.59867,-20.36666 -24.45467,-20.36666 -0.15733,0 -55.42266,20.09466 -55.42266,20.09466 -0.068,0.0227 -0.83067,0.18667 -1.33467,0.196 l -2.70266,-0.62667 -10.26267,-2.37333 -1.46,-0.33867 -1.45867,-0.33733 -0.47066,-0.108 -1.29467,-0.29867 -1.292,-0.3 -3.77333,-0.87333 -1.04934,-0.24267 -1.8,-0.41466 -1.00266,-0.23334 -2.376,-0.54933 -0.95867,-0.22267 -1.58667,-0.36666 -0.96933,-0.22267 -0.59867,-0.13867 -1.708,0.89467 -0.90133,0.472 -1.37733,0.72267 -0.88267,0.46133 -1.812,0.95067 -0.88667,0.46533 -1.40666,0.736 -0.912,0.47867 -2.49734,1.30933 -1.068,0.56 -1.956,1.02533 c -0.19333,-0.001 -0.38133,-0.001 -0.56933,-0.001 -1.072,-0.005 -2.048,-0.009 -2.89467,-0.0147 -2.168,-0.0107 -3.50266,-0.0187 -3.50266,-0.0187 -2.46667,-0.0507 -5.01067,-0.0787 -7.6,-0.0867 -24.11467,-0.0787 -52.03467,1.52667 -56.792,1.83333 L 141.62534,134.89067 198.38,155.72 c 0.10267,-0.31067 0.21067,-0.62133 0.32267,-0.93067 0.11333,-0.308 0.232,-0.61333 0.35466,-0.91866 0.21067,-0.52267 0.43867,-1.04267 0.68,-1.556 0.13867,-0.296 0.28267,-0.592 0.43067,-0.884 0.14933,-0.29334 0.30133,-0.584 0.46,-0.87067 l -58.468,-29.72666 0.24933,-6.56267 c 6.93467,-0.728 16.27734,-1.66933 27.312,-2.58533 l 35.52134,32.54799 c 0.224,-0.23866 0.45333,-0.47466 0.68666,-0.704 0.23334,-0.232 0.47067,-0.46 0.70934,-0.684 0.41333,-0.38266 0.84,-0.756 1.276,-1.11866 0.252,-0.208 0.508,-0.41467 0.768,-0.616 0.25733,-0.2 0.52,-0.39867 0.78533,-0.59333 L 185.94267,110.46 c 5.556,-0.37466 11.38666,-0.72266 17.42533,-1.02133 l 12.95067,27.29733 c 0.30533,-0.12133 0.612,-0.23733 0.92,-0.34933 0.30933,-0.112 0.62,-0.216 0.932,-0.31733 0.54,-0.176 1.08133,-0.33334 1.62666,-0.47734 0.31734,-0.084 0.636,-0.164 0.95467,-0.23733 0.32,-0.0733 0.64133,-0.144 0.96267,-0.20667 L 215.632,108.91334 c 1.524,-0.056 3.05733,-0.10534 4.59867,-0.15334 3.85733,-0.116 7.74266,-0.208 11.64266,-0.26933 L 229.516,134.628 c 0.328,0.0187 0.65467,0.044 0.98133,0.0733 0.328,0.0307 0.65334,0.068 0.97867,0.10666 0.56133,0.0707 1.11867,0.156 1.672,0.256 0.32267,0.0587 0.64667,0.12 0.96667,0.188 0.32,0.0693 0.64,0.144 0.95866,0.22267 L 243.108,108.3973 h 0.0787 c 5.50533,0 10.99733,0.068 16.42666,0.192 l -17.25066,29.696 c 0.28933,0.15466 0.57466,0.31333 0.86,0.48 0.284,0.164 0.564,0.33466 0.84266,0.50933 0.476,0.29867 0.94534,0.60933 1.40667,0.93333 0.26933,0.19067 0.536,0.38267 0.79733,0.57867 0.24534,0.18533 0.484,0.37467 0.72534,0.56667 l -0.04,0.0707 0.052,-0.0613 c 0.0133,0.0107 0.0253,0.02 0.0387,0.0307 l 0.512,-0.68 26.84934,-31.65334 c 10.61999,0.432 20.79999,1.036 30.12533,1.70534 l -52.0774,36.2586 c 0.19466,0.26267 0.38666,0.52933 0.57333,0.8 0.188,0.268 0.372,0.54 0.55067,0.81733 0.14933,0.23067 0.29866,0.46534 0.44133,0.70267 0.15067,0.24533 0.296,0.49067 0.43867,0.73733 0.164,0.28534 0.32133,0.57334 0.47466,0.86134 0.15467,0.292 0.30534,0.584 0.44934,0.87733 l 73.28399,-39.04933 c 4.104,0.38933 7.82,0.76533 11.06934,1.10667 0.43866,0.0467 0.86933,0.092 1.292,0.13733 l 1.404,45.54266 v 0.024"
       style="display:inline;fill:#0e3530;fill-opacity:1;fill-rule:nonzero;stroke:none;stroke-width:0.133333" />
    <path
       id="path16-5"
       d="m 178.82533,83.39067 c -0.28933,-1.022667 -0.57733,-2.18 -0.856,-3.298667 -0.10266,-0.42 -0.20666,-0.838666 -0.31066,-1.248 -0.356,1.568 -0.74934,3.281333 -1.14667,4.756 -0.10667,0.418667 -0.21333,0.838667 -0.32,1.257333 0.98667,-0.07733 1.97333,-0.150666 2.96133,-0.224 l -0.328,-1.242666"
       style="fill:#0e3530;fill-opacity:1;fill-rule:nonzero;stroke:none;stroke-width:0.133333" />
  </g>
  <path
     id="path15-2"
     d="m 330.68702,19.618658 c -1.01012,-0.06138 -2.02269,-0.120366 -3.04018,-0.179351 -22.15624,-1.280473 -46.04272,-2.253725 -70.36666,-2.573221 -0.61441,-0.0074 -1.23131,-0.01474 -1.84819,-0.02212 -0.61688,-0.0092 -1.23378,-0.01474 -1.84819,-0.02212 -4.35997,-0.04424 -8.72732,-0.06636 -13.10696,-0.06636 -2.71823,0 -5.43399,0.0074 -8.15467,0.02452 -0.60706,0.0055 -1.21657,0.0092 -1.82363,0.01291 -0.6095,0.0074 -1.2141,0.01291 -1.82362,0.01659 -21.02324,0.196623 -41.99241,0.892148 -62.00306,1.867853 -0.6169,0.03189 -1.22887,0.06138 -1.84083,0.09345 -0.61443,0.0295 -1.22887,0.06138 -1.84328,0.09088 -7.49847,0.380951 -14.8544,0.801219 -22.01617,1.246058 -0.62915,0.04185 -1.26079,0.07871 -1.88751,0.120366 -0.63164,0.03926 -1.25835,0.07871 -1.88506,0.117971 -61.086362,3.917566 -107.200353,9.63419 -107.200353,9.63419 v 54.745469 l 0.643911,43.216337 0.02955,2.0522 0.0023,0.17197 0.02713,1.88015 0.324415,21.78513 0.03186,1.94404 0.02713,1.94405 1.595071,107.30603 c -0.314602,37.49231 8.955872,71.32514 23.672634,101.32147 42.34386,86.32455 129.784242,140.88079 163.700622,159.54707 l 14.48327,7.44931 13.76808,-7.44931 c 35.28532,-18.82849 126.53266,-74.01633 170.38557,-161.2945 14.81997,-29.49741 24.23054,-62.65928 24.23054,-99.32336 l 1.98092,-135.11991 0.73732,-50.287166 V 29.980223 c 0,0 -49.59903,-6.473605 -114.95196,-10.361694"
     style="display:none;fill:#0b3820;fill-opacity:1;fill-rule:nonzero;stroke:none;stroke-width:0.245771" />
  <g
     id="g2"
     style="display:none"
     transform="matrix(1.7400627,0,0,1.8432815,-304.67601,-84.624995)">
    <path
       d="m 400.13551,80.212299 c 1.49867,-1.34134 3.56933,-1.944 5.82667,-1.68667 2.62,0.29067 4.36266,1.69733 5.36266,2.82533 l 0.13334,0.152 -2.268,2.50534 -0.16934,-0.17334 c -0.82666,-0.85733 -1.65066,-1.45866 -2.98533,-1.608 -1.06533,-0.116 -2.01067,0.15067 -2.71733,0.784 -0.90667,0.812 -1.38667,2.14134 -1.38534,3.84534 0,3.388 1.54,5.35066 4.45334,5.67733 0.58,0.0653 1.148,-0.0133 1.5,-0.19867 v -2.53333 c -2.33981,-0.268471 -0.51172,-0.05665 -2.74134,-0.30803 v -3.51867 l 0.252,0.0293 c 2.24426,0.248704 4.3558,0.491347 6.26267,0.71866 v 7.95334 l -0.0787,0.0667 c -1.10133,0.952 -2.80933,1.492 -4.62,1.492 -0.33466,0 -0.67333,-0.0187 -1.012,-0.056 -5.04933,-0.56533 -8.308,-4.332 -8.304,-9.596 0,-2.71066 0.86,-4.91333 2.49067,-6.37066 m -19.32133,-3.81467 c 1.40473,0.114579 2.80901,0.235109 4.21333,0.35433 1.46136,2.916197 2.92106,5.833233 4.37997,8.75066 l 1.18667,2.752 v -0.009 c -0.168,-1.57467 -0.35867,-3.35867 -0.356,-4.91467 v -6.11066 l 0.248,0.0227 c 1.18933,0.11067 2.37866,0.22534 3.56933,0.34134 l 0.204,0.02 v 17.044 c -1.40324,-0.136639 -2.80707,-0.267176 -4.21067,-0.40003 -1.45732,-2.926443 -2.91737,-5.851533 -4.37866,-8.776 l -1.19334,-2.74 c 0.008,0.064 0.0133,0.128 0.0213,0.19066 0.16,1.50667 0.34,3.21334 0.34,4.724 v 6.13467 c -1.34096,-0.117325 -2.68236,-0.229474 -4.024,-0.33864 z m -9.352,-0.712 c 1.57674,0.111794 3.47927,0.252928 4.204,0.30797 v 17.044 c -0.73985,-0.05701 -2.94426,-0.21938 -4.204,-0.30673 z m -16.576,0.75733 c 1.36133,-1.28533 3.21066,-1.89333 5.39066,-1.776 4.71067,0.27067 7.75334,3.88934 7.75067,9.22 -0.001,2.86267 -0.83733,5.164 -2.41867,6.656 -1.248,1.17734 -2.90933,1.79334 -4.828,1.79334 -0.17466,0 -0.35066,-0.005 -0.52933,-0.016 -4.71067,-0.26934 -7.75467,-3.91734 -7.75467,-9.29734 0.001,-2.83066 0.82934,-5.10666 2.38934,-6.58 m -18.70267,-2.50533 0.23333,0.007 c 1.56534,0.0453 3.132,0.0947 4.69867,0.148 5.51867,0.19333 8.55867,3.31066 8.55733,8.77866 0,2.76 -0.74666,4.88 -2.22,6.304 -1.36,1.31067 -3.26533,1.976 -5.67066,1.976 -0.15467,0 -0.31334,-0.004 -0.47334,-0.009 -1.636,-0.056 -3.27066,-0.10667 -4.90533,-0.15467 l -0.22,-0.007 z m -18.432,-0.3293 h 0.15333 c 0.78467,1.953607 1.49635,3.874492 2.3853,6.276 l 0.35066,0.95066 c 0.17734,-0.46933 0.356,-0.92266 0.53067,-1.37466 0.82495,-2.103631 -0.61392,1.531231 2.252,-5.79334 1.47779,0.0221 2.95557,0.04538 4.43333,0.0707 -1.71233,3.62251 -3.4241,7.245285 -5.136,10.868 v 6.096 c -0.39709,-0.007 -2.1217,-0.02874 -3.98266,-0.0427 l -0.22534,-0.003 v -6.09067 c -1.70804,-3.660517 -3.42385,-7.317403 -5.13599,-10.976 0.82115,7.12e-4 2.8189,0.0077 4.3747,0.01901 z m -18.53866,0.0746 0.224,-0.003 c 1.89733,-0.0293 3.79066,-0.0507 5.68933,-0.0653 2.51067,-0.0133 4.26133,0.46667 5.29467,1.496 0.70533,0.69867 1.06266,1.64667 1.06266,2.81867 0,1.512 -0.78666,2.948 -1.92,3.6 1.74667,0.61333 2.73734,2.044 2.73734,3.988 -10e-4,3.18533 -2.504,5.10533 -6.69734,5.136 -2.052,0.0147 -4.10666,0.0373 -6.16133,0.068 l -0.22933,0.004 z m -24.59734,0.724 0.216,-0.0107 c 2.37418,-0.101143 3.47489,-0.145376 3.992,-0.16367 1.46761,2.738849 2.9353,5.477655 4.40137,8.21733 l 1.20266,2.62933 c -0.17066,-1.58 -0.36533,-3.37066 -0.36666,-4.95466 v -6.08 c 1.34428,-0.04537 2.68875,-0.08675 4.03333,-0.12134 v 17.04134 l -0.22133,0.007 c -1.329,0.03662 -2.65785,0.0788 -3.98667,0.12134 -1.46803,-2.7466 -2.93294,-5.494913 -4.40133,-8.24134 l -1.208,-2.61866 c 0.009,0.0907 0.02,0.18266 0.028,0.276 0.16133,1.48133 0.34133,3.16133 0.34266,4.66933 v 6.104 c -1.26543,0.04995 -2.53076,0.102427 -3.796,0.157 l -0.236,0.009 z m -16.428,0.88267 c 2.06349,-0.132368 4.12762,-0.254401 6.192,-0.37197 2.38667,-0.13333 4.17334,0.33333 5.28667,1.388 0.904,0.85333 1.36,2.088 1.36,3.66933 -10e-4,2.276 -1.028,4.01734 -2.86667,5.03334 2.81017,4.813463 0.35798,0.614784 3.82267,6.56133 -1.57132,0.07452 -3.14239,0.154043 -4.71333,0.23603 -0.0183,-0.03313 -2.58815,-4.735512 -3.1693,-5.79733 -0.56933,0.032 -1.13866,0.0653 -1.70666,0.0973 v 5.97067 c -1.40193,0.08338 -2.8038,0.167859 -4.20534,0.25727 z m -12.89336,0.916 c 1.54715,-0.122193 3.09481,-0.237856 4.64267,-0.35067 l 0.17733,-0.0147 c 1.78604,5.556222 3.56837,11.113657 5.352,16.67066 -1.48213,0.09742 -2.96388,0.200884 -4.44533,0.30807 l -1.02,-3.87866 c -1.568,0.11466 -3.13734,0.23466 -4.704,0.35733 -0.23726,0.930757 -0.93816,3.685521 -1.02404,4.03467 -0.2945,0.02173 -1.73804,0.138422 -4.328,0.35733 1.78044,-5.828831 3.56518,-11.656348 5.34937,-17.48403 z m -18.7453,1.688 c 1.99918,-0.210118 7.9855,-0.78091 10.83066,-1.0266 v 3.60134 c -0.45364,0.03798 -3.41959,0.302468 -6.63333,0.61063 v 2.876 c 1.88106,-0.182319 3.76317,-0.353532 5.64533,-0.52403 v 3.60134 c -1.88246,0.167808 -3.76411,0.344297 -5.64533,0.52537 v 3.36533 c 2.29517,-0.220494 4.59117,-0.432283 6.888,-0.63463 v 3.60133 c -1.76282,0.146619 -5.64482,0.506393 -11.08533,1.04797 z m -14.49467,1.59067 0.2,-0.0227 c 1.33061,-0.1585 2.66187,-0.311497 3.99333,-0.46267 v 13.444 c 2.09067,-0.23866 4.18267,-0.468 6.27867,-0.68933 l 0.24933,-0.028 v 3.60267 c -3.49175,0.369277 -6.98087,0.762828 -10.468,1.17337 l -0.25333,0.0293 z"
       style="display:inline;fill:#ffffff;fill-opacity:1;fill-rule:nonzero;stroke:none;stroke-width:0.133333"
       id="path1" />
    <path
       id="path10"
       d="m 307.37979,78.485324 c 0,-0.452 -0.11333,-0.78533 -0.35066,-1.02133 -0.38142,-0.377023 -1.06302,-0.50934 -2.0227,-0.50934 l -1.55867,0.0147 v 3.29733 l 1.528,-0.0147 c 1.596,-0.0133 2.404,-0.608 2.404,-1.76667"
       style="display:inline;fill:#0b3820;fill-opacity:1;fill-rule:nonzero;stroke:none;stroke-width:0.133333" />
    <path
       id="path11"
       d="m 266.91076,80.166251 c 0,-0.59466 -0.14666,-1.02266 -0.44933,-1.308 -0.42133,-0.39866 -1.16667,-0.55466 -2.344,-0.48666 l -1.70533,0.0973 v 4.20933 l 1.68,-0.0973 c 1.87066,-0.10667 2.81866,-0.91867 2.81866,-2.41467"
       style="display:inline;fill:#0b3820;fill-opacity:1;fill-rule:nonzero;stroke:none;stroke-width:0.133333" />
    <path
       id="path12"
       d="m 308.19846,85.273324 c 10e-4,-0.51067 -0.13467,-0.89333 -0.416,-1.172 -0.44836,-0.445551 -1.24129,-0.63067 -2.46133,-0.63067 l -1.87334,0.0173 v 3.82933 l 1.87067,-0.0173 c 1.93867,-0.0147 2.88,-0.67734 2.88,-2.02667"
       style="display:inline;fill:#0b3820;fill-opacity:1;fill-rule:nonzero;stroke:none;stroke-width:0.133333" />
    <path
       id="path13"
       d="m 360.29307,88.624671 c 0.796,0.056 1.51467,-0.19734 2.08,-0.73067 0.88534,-0.83733 1.37334,-2.348 1.372,-4.256 0,-3.18267 -1.3,-5.15867 -3.47733,-5.28267 -0.48966,-0.03533 -1.37639,0.02237 -2.12667,0.73033 -0.864,0.816 -1.324,2.244 -1.32666,4.12933 0.003,3.21334 1.336,5.28667 3.47866,5.40934"
       style="display:inline;fill:#0b3820;fill-opacity:1;fill-rule:nonzero;stroke:none;stroke-width:0.133333" />
    <path
       id="path14"
       d="m 344.13875,86.637333 c 0.828,-0.8 1.248,-2.13333 1.24667,-3.95867 0.005,-3.40933 -1.428,-5.04666 -4.5,-5.15333 l -0.47867,-0.0147 v 10.09467 l 0.49334,0.016 c 1.436,0.052 2.50133,-0.272 3.23866,-0.984"
       style="display:inline;fill:#0b3820;fill-opacity:1;fill-rule:nonzero;stroke:none;stroke-width:0.133333" />
    <path
       id="path16"
       d="m 248.84,84.401292 c -0.42226,-1.506803 -0.78599,-3.02904 -1.16666,-4.54667 -0.356,1.568 -0.74934,3.28134 -1.14667,4.756 -0.10667,0.41867 -0.21333,0.83867 -0.32,1.25734 0.98667,-0.0773 1.97333,-0.15067 2.96133,-0.224 l -0.328,-1.24267"
       style="display:inline;fill:#0b3820;fill-opacity:1;fill-rule:nonzero;stroke:none;stroke-width:0.133333" />
  </g>
  <path
     d="m 303.18283,214.32119 c 1.22694,-0.38529 16.47279,-6.19344 57.07406,-21.91293 l -0.007,0.002 c 0.002,0 0.008,-0.002 0.008,-0.002 l -34.39988,23.72919 h -0.0122 -0.002 l -22.67882,-1.79904 c 0.007,-0.006 0.0301,-0.0129 0.0417,-0.0166 z m 65.97174,-41.53026 c -1.13236,0 -95.49207,37.49171 -98.8102,37.55677 -2.14524,-0.52692 -35.59501,-8.72729 -57.51953,-14.09495 -6.95758,3.86061 -7.94059,4.40637 -26.81088,14.88635 -53.51196,-0.29321 21.50082,-0.0696 -25.3469,-0.22323 -41.96103,-0.14506 -90.543592,2.81409 -98.821642,3.37937 l 1.73772,-48.43899 98.756702,38.39432 c 0.35384,-1.13417 0.68532,-2.10812 1.1786,-3.40884 0.36657,-0.96342 0.7633,-1.92193 1.18324,-2.86814 0.19659,-0.44455 0.81233,-1.8229 1.54982,-3.23436 l -101.738012,-54.79459 0.43386,-12.09685 c 12.06676,-1.34191 28.32359,-3.07704 47.524602,-4.7655 l 61.80937,59.99513 c 0.92378,-1.04267 1.82883,-1.96166 2.42912,-2.55848 0.71923,-0.70536 1.46165,-1.39351 2.22033,-2.06201 0.95276,-0.83306 1.8169,-1.54057 2.70288,-2.22914 L 140.6981,120.82365 c 9.6678,-0.6906 19.8135,-1.33206 30.32118,-1.8826 l 22.53497,50.31667 c 1.02538,-0.43163 1.94821,-0.7904 3.2226,-1.22884 0.93964,-0.32443 1.88158,-0.61445 2.83048,-0.87987 0.45631,-0.12793 1.82997,-0.50723 3.3363,-0.81842 L 192.3594,117.97272 c 8.16932,-0.31798 18.45053,-0.61567 28.26093,-0.77909 l -4.1019,48.17844 c 0.94193,0.0569 1.80773,0.12996 3.41053,0.33172 0.97675,0.13032 1.94655,0.28756 2.90937,0.47188 1.15689,0.22295 1.98593,0.4002 3.3502,0.75698 l 13.98084,-49.91113 c 3.74565,0 14.46053,0.009 28.72035,0.35391 l -30.01723,54.73808 c 1.02701,0.58153 1.96644,1.16206 2.96274,1.82362 0.82827,0.55052 1.64495,1.12316 2.4477,1.72038 0.8958,0.64665 2.0727,1.63035 2.73776,2.18437 15.73537,-19.9778 31.71984,-39.75439 47.61043,-59.59945 18.47947,0.7963 36.1933,1.90964 52.41998,3.14342 l -90.61784,66.83492 c 0.33874,0.48417 0.67284,0.97572 0.99765,1.47462 0.14965,0.22586 0.97874,1.48477 1.72614,2.80179 0.31043,0.5355 0.84247,1.46091 1.58925,2.94679 0.26914,0.53825 0.5313,1.07649 0.78186,1.61717 l 127.51876,-71.97891 c 7.3803,0.74168 15.40956,1.60005 21.50951,2.29305 l 2.42945,83.99836"
     style="display:none;fill:#ffffff;fill-opacity:1;fill-rule:nonzero;stroke:none;stroke-width:0.238791"
     id="path1-1" />
  <path
     d="m 412.52602,280.30378 c -0.55913,7.08312 -1.70989,16.41749 -4.03229,27.3199 -3.11588,14.63073 -8.3523,32.07554 -17.0967,50.65337 -9.48682,20.16303 -23.10802,41.65569 -42.66402,62.33731 -60.56811,64.24452 -114.02282,79.06202 -114.02282,79.06202 0,0 -49.97924,-16.57723 -108.33398,-78.35173 -19.63257,-20.79469 -33.353532,-42.17428 -42.951732,-62.10139 -7.9254,-16.44944 -13.03654,-31.90352 -16.32643,-45.22676 -2.4036,-9.73007 -3.83741,-18.31976 -4.68657,-25.32423 -1.50109,-12.38192 -1.18557,-19.8165 -1.18557,-19.8165 12.96514,-7.85399 39.156542,-15.5048 41.285902,-16.11519 15.6072,-4.52463 35.75251,-9.04682 60.62148,-12.15337 19.52117,-2.43558 41.95406,-4.00115 67.38914,-4.00115 12.25469,0 23.9363,0.31951 35.04254,0.88969 95.68847,4.90326 147.23657,28.08022 147.40884,28.15797 0,0 0.27842,5.41433 -0.44779,14.67006"
     style="display:none;fill:#ffffff;fill-opacity:1;fill-rule:nonzero;stroke:none;stroke-width:0.238791"
     id="path1-15" />
  <path
     id="path9"
     d="m 318.98952,324.89979 -19.06643,-21.84164 11.22455,-11.17275 -11.98555,-13.54935 -7.12961,7.09295 1.0185,10.95154 -25.38635,-28.70848 -9.60049,-0.31459 -21.16381,19.91973 -0.27841,9.54327 20.40514,23.45638 c -1.64063,1.62986 -3.27931,3.26192 -4.91859,4.8933 l -24.70424,25.16693 -72.36108,-82.78054 -5.25267,-5.57653 -1.21109,39.95987 c -0.18562,6.2942 0.89788,10.21424 3.153,13.54198 0.2668,0.3957 0.54754,0.78893 0.84683,1.17477 2.73304,3.46538 5.64011,6.51048 11.8185,9.14761 11.01575,4.71142 23.72054,5.43644 23.84814,5.44382 l 5.71668,0.29492 c -1.91764,1.1196 -3.82874,2.25304 -5.78628,3.28842 -1.64031,0.7496 -5.98351,2.35694 -12.85326,2.13083 -4.51256,-0.14986 -9.74437,-0.96341 -15.5724,-2.42329 0.99299,1.16004 2.19478,2.46753 3.60308,3.9397 0.31554,0.32441 0.62409,0.64638 0.95819,0.99045 5.97189,6.11724 12.2686,8.35376 20.48401,9.98076 7.65861,1.52131 21.96889,3.63496 22.09417,3.65215 l 4.95803,0.73487 -3.99519,2.22667 -0.43154,0.24332 c -0.20415,0.11557 -5.11347,2.81408 -13.83234,2.52653 -5.80948,-0.18925 -10.83479,-1.21657 -14.35899,-2.17507 l 2.69824,3.1139 1.02317,1.18463 c 3.03931,3.50224 8.24789,6.35808 15.92274,8.73223 2.22031,0.6857 4.49863,1.27555 6.71432,1.79167 7.94396,1.84573 15.01789,2.63221 15.10605,2.64203 l 5.15292,0.56283 -3.03235,1.75725 -1.51271,0.87741 c -0.56377,0.32441 -5.73525,3.1434 -14.84853,2.54372 -2.62401,-0.17197 -5.33387,-0.58002 -8.08085,-1.20182 -0.0277,-0.006 -0.0534,-0.007 -0.0813,-0.0148 l 0.044,0.0516 -35.80121,35.62696 12.00178,13.53212 36.65502,-36.47729 c 7.34073,4.27641 19.36342,8.3095 29.21217,8.63393 l 15.83455,0.56773 26.87586,29.54411 14.08059,0.0148 -58.15521,-66.48102 25.46987,-25.34881 c 1.69693,-1.68988 3.39372,-3.37994 5.09026,-5.07024 l 19.02237,21.6647 9.60283,0.31703 21.16148,-19.92463 0.27841,-9.54083 -0.67515,-0.85775"
     style="display:none;fill:#0b3720;fill-opacity:1;fill-rule:nonzero;stroke:none;stroke-width:0.238791" />
  <g
     id="g3"
     transform="matrix(0.77809805,-0.67754795,0.80227009,0.69034014,-53.988687,353.62088)"
     style="display:none">
    <path
       d="m 383.1932,153.26973 0.21334,-0.0133 c 1.99066,-0.12667 3.984,-0.24667 5.97866,-0.35867 2.38667,-0.13333 4.17334,0.33333 5.28667,1.388 0.904,0.85333 1.36,2.088 1.36,3.66933 -6.4e-4,1.46586 -0.32565,2.58638 -1.04259,3.61559 -0.48414,0.69501 -1.49799,1.22546 -2.04624,1.50661 -1.24019,0.63601 -3.55313,0.89517 -3.8378,0.91117 -0.28466,0.016 -1.13866,0.0653 -1.70666,0.0973 v 5.97067 l -0.21334,0.0133 c -1.252,0.0733 -2.50133,0.14933 -3.75066,0.22667 l -0.24134,0.0173 z"
       style="display:inline;fill:#ffffff;fill-opacity:1;fill-rule:nonzero;stroke:none;stroke-width:0.133333"
       id="path1-7" />
    <path
       id="path11-41"
       d="m 391.91648,158.14641 c 0,-0.59466 -0.14666,-1.02266 -0.44933,-1.308 -0.42133,-0.39866 -1.16667,-0.55466 -2.344,-0.48666 l -1.70533,0.0973 v 4.20933 l 1.68,-0.0973 c 1.87066,-0.10667 2.81866,-0.91867 2.81866,-2.41467"
       style="display:inline;fill:#0b3720;fill-opacity:1;fill-rule:nonzero;stroke:none;stroke-width:0.133333" />
  </g>
  <rect
     style="display:none;fill:#000000;stroke-width:7.04243;stroke-linejoin:round"
     id="rect1"
     width="79.370079"
     height="192.75591"
     x="196.67334"
     y="244.54082" />
  <g
     id="g4"
     transform="translate(-501.95122,146.42625)"
     style="display:none">
    <rect
       style="fill:#000000;stroke-width:7.04243;stroke-linejoin:round"
       id="rect3"
       width="63.874016"
       height="215.43307"
       x="795.80371"
       y="78.037712" />
    <rect
       style="fill:#000000;stroke-width:7.04243;stroke-linejoin:round"
       id="rect4"
       width="63.874016"
       height="215.43307"
       x="616.93762"
       y="78.037712" />
  </g>
  <g
     id="layer8"
     style="display:none"
     transform="translate(-56.408479,-4.8010866)">
    <path
       id="path146"
       d="m 387.0955,24.419745 c -1.01012,-0.06138 -2.02269,-0.120366 -3.04018,-0.179351 -22.15624,-1.280473 -46.04272,-2.253725 -70.36666,-2.573221 -0.61441,-0.0074 -1.23131,-0.01474 -1.84819,-0.02212 -0.61688,-0.0092 -1.23378,-0.01474 -1.84819,-0.02212 -4.35997,-0.04424 -8.72732,-0.06636 -13.10696,-0.06636 -2.71823,0 -5.43399,0.0074 -8.15467,0.02452 -0.60706,0.0055 -1.21657,0.0092 -1.82363,0.01291 -0.6095,0.0074 -1.2141,0.01291 -1.82362,0.01659 -21.02324,0.196623 -41.99241,0.892148 -62.00306,1.867853 -0.6169,0.03189 -1.22887,0.06138 -1.84083,0.09345 -0.61443,0.0295 -1.22887,0.06138 -1.84328,0.09088 -7.49847,0.380951 -14.8544,0.801219 -22.01617,1.246058 -0.62915,0.04185 -1.26079,0.07871 -1.88751,0.120366 -0.63164,0.03926 -1.25835,0.07871 -1.88506,0.117971 -61.08636,3.917566 -107.200351,9.63419 -107.200351,9.63419 V 89.52683 l 0.643911,43.21634 0.02955,2.0522 0.0023,0.17197 0.02713,1.88015 0.324415,21.78513 0.03186,1.94404 0.02713,1.94405 1.595071,107.30603 c -0.314602,37.49231 8.955872,71.32514 23.672634,101.32147 42.34386,86.32455 129.78424,140.88079 163.70062,159.54707 l 14.48327,7.44931 13.76808,-7.44931 c 35.28532,-18.82849 126.53266,-74.01633 170.38557,-161.2945 14.81997,-29.49741 24.23054,-62.65928 24.23054,-99.32336 l 1.98092,-135.11991 0.73732,-50.287169 V 34.78131 c 0,0 -49.59903,-6.473605 -114.95196,-10.361694"
       style="display:inline;fill:#0b3820;fill-opacity:1;fill-rule:nonzero;stroke:none;stroke-width:0.245771" />
    <path
       d="m 400.13551,80.212299 c 1.49867,-1.34134 3.56933,-1.944 5.82667,-1.68667 2.62,0.29067 4.36266,1.69733 5.36266,2.82533 l 0.13334,0.152 -2.268,2.50534 -0.16934,-0.17334 c -0.82666,-0.85733 -1.65066,-1.45866 -2.98533,-1.608 -1.06533,-0.116 -2.01067,0.15067 -2.71733,0.784 -0.90667,0.812 -1.38667,2.14134 -1.38534,3.84534 0,3.388 1.54,5.35066 4.45334,5.67733 0.58,0.0653 1.148,-0.0133 1.5,-0.19867 v -2.53333 c -2.33981,-0.268471 -0.51172,-0.05665 -2.74134,-0.30803 v -3.51867 l 0.252,0.0293 c 2.24426,0.248704 4.3558,0.491347 6.26267,0.71866 v 7.95334 l -0.0787,0.0667 c -1.10133,0.952 -2.80933,1.492 -4.62,1.492 -0.33466,0 -0.67333,-0.0187 -1.012,-0.056 -5.04933,-0.56533 -8.308,-4.332 -8.304,-9.596 0,-2.71066 0.86,-4.91333 2.49067,-6.37066 m -19.32133,-3.81467 c 1.40473,0.114579 2.80901,0.235109 4.21333,0.35433 1.46136,2.916197 2.92106,5.833233 4.37997,8.75066 l 1.18667,2.752 v -0.009 c -0.168,-1.57467 -0.35867,-3.35867 -0.356,-4.91467 v -6.11066 l 0.248,0.0227 c 1.18933,0.11067 2.37866,0.22534 3.56933,0.34134 l 0.204,0.02 v 17.044 c -1.40324,-0.136639 -2.80707,-0.267176 -4.21067,-0.40003 -1.45732,-2.926443 -2.91737,-5.851533 -4.37866,-8.776 l -1.19334,-2.74 c 0.008,0.064 0.0133,0.128 0.0213,0.19066 0.16,1.50667 0.34,3.21334 0.34,4.724 v 6.13467 c -1.34096,-0.117325 -2.68236,-0.229474 -4.024,-0.33864 z m -9.352,-0.712 c 1.57674,0.111794 3.47927,0.252928 4.204,0.30797 v 17.044 c -0.73985,-0.05701 -2.94426,-0.21938 -4.204,-0.30673 z m -16.576,0.75733 c 1.36133,-1.28533 3.21066,-1.89333 5.39066,-1.776 4.71067,0.27067 7.75334,3.88934 7.75067,9.22 -0.001,2.86267 -0.83733,5.164 -2.41867,6.656 -1.248,1.17734 -2.90933,1.79334 -4.828,1.79334 -0.17466,0 -0.35066,-0.005 -0.52933,-0.016 -4.71067,-0.26934 -7.75467,-3.91734 -7.75467,-9.29734 0.001,-2.83066 0.82934,-5.10666 2.38934,-6.58 m -18.70267,-2.50533 0.23333,0.007 c 1.56534,0.0453 3.132,0.0947 4.69867,0.148 5.51867,0.19333 8.55867,3.31066 8.55733,8.77866 0,2.76 -0.74666,4.88 -2.22,6.304 -1.36,1.31067 -3.26533,1.976 -5.67066,1.976 -0.15467,0 -0.31334,-0.004 -0.47334,-0.009 -1.636,-0.056 -3.27066,-0.10667 -4.90533,-0.15467 l -0.22,-0.007 z m -18.432,-0.3293 h 0.15333 c 0.78467,1.953607 1.49635,3.874492 2.3853,6.276 l 0.35066,0.95066 c 0.17734,-0.46933 0.356,-0.92266 0.53067,-1.37466 0.82495,-2.103631 -0.61392,1.531231 2.252,-5.79334 1.47779,0.0221 2.95557,0.04538 4.43333,0.0707 -1.71233,3.62251 -3.4241,7.245285 -5.136,10.868 v 6.096 c -0.39709,-0.007 -2.1217,-0.02874 -3.98266,-0.0427 l -0.22534,-0.003 v -6.09067 c -1.70804,-3.660517 -3.42385,-7.317403 -5.13599,-10.976 0.82115,7.12e-4 2.8189,0.0077 4.3747,0.01901 z m -18.53866,0.0746 0.224,-0.003 c 1.89733,-0.0293 3.79066,-0.0507 5.68933,-0.0653 2.51067,-0.0133 4.26133,0.46667 5.29467,1.496 0.70533,0.69867 1.06266,1.64667 1.06266,2.81867 0,1.512 -0.78666,2.948 -1.92,3.6 1.74667,0.61333 2.73734,2.044 2.73734,3.988 -10e-4,3.18533 -2.504,5.10533 -6.69734,5.136 -2.052,0.0147 -4.10666,0.0373 -6.16133,0.068 l -0.22933,0.004 z m -24.59734,0.724 0.216,-0.0107 c 2.37418,-0.101143 3.47489,-0.145376 3.992,-0.16367 1.46761,2.738849 2.9353,5.477655 4.40137,8.21733 l 1.20266,2.62933 c -0.17066,-1.58 -0.36533,-3.37066 -0.36666,-4.95466 v -6.08 c 1.34428,-0.04537 2.68875,-0.08675 4.03333,-0.12134 v 17.04134 l -0.22133,0.007 c -1.329,0.03662 -2.65785,0.0788 -3.98667,0.12134 -1.46803,-2.7466 -2.93294,-5.494913 -4.40133,-8.24134 l -1.208,-2.61866 c 0.009,0.0907 0.02,0.18266 0.028,0.276 0.16133,1.48133 0.34133,3.16133 0.34266,4.66933 v 6.104 c -1.26543,0.04995 -2.53076,0.102427 -3.796,0.157 l -0.236,0.009 z m -16.428,0.88267 c 2.06349,-0.132368 4.12762,-0.254401 6.192,-0.37197 2.38667,-0.13333 4.17334,0.33333 5.28667,1.388 0.904,0.85333 1.36,2.088 1.36,3.66933 -10e-4,2.276 -1.028,4.01734 -2.86667,5.03334 2.81017,4.813463 0.35798,0.614784 3.82267,6.56133 -1.57132,0.07452 -3.14239,0.154043 -4.71333,0.23603 -0.0183,-0.03313 -2.58815,-4.735512 -3.1693,-5.79733 -0.56933,0.032 -1.13866,0.0653 -1.70666,0.0973 v 5.97067 c -1.40193,0.08338 -2.8038,0.167859 -4.20534,0.25727 z m -12.89336,0.916 c 1.54715,-0.122193 3.09481,-0.237856 4.64267,-0.35067 l 0.17733,-0.0147 c 1.78604,5.556222 3.56837,11.113657 5.352,16.67066 -1.48213,0.09742 -2.96388,0.200884 -4.44533,0.30807 l -1.02,-3.87866 c -1.568,0.11466 -3.13734,0.23466 -4.704,0.35733 -0.23726,0.930757 -0.93816,3.685521 -1.02404,4.03467 -0.2945,0.02173 -1.73804,0.138422 -4.328,0.35733 1.78044,-5.828831 3.56518,-11.656348 5.34937,-17.48403 z m -18.7453,1.688 c 1.99918,-0.210118 7.9855,-0.78091 10.83066,-1.0266 v 3.60134 c -0.45364,0.03798 -3.41959,0.302468 -6.63333,0.61063 v 2.876 c 1.88106,-0.182319 3.76317,-0.353532 5.64533,-0.52403 v 3.60134 c -1.88246,0.167808 -3.76411,0.344297 -5.64533,0.52537 v 3.36533 c 2.29517,-0.220494 4.59117,-0.432283 6.888,-0.63463 v 3.60133 c -1.76282,0.146619 -5.64482,0.506393 -11.08533,1.04797 z m -14.49467,1.59067 0.2,-0.0227 c 1.33061,-0.1585 2.66187,-0.311497 3.99333,-0.46267 v 13.444 c 2.09067,-0.23866 4.18267,-0.468 6.27867,-0.68933 l 0.24933,-0.028 v 3.60267 c -3.49175,0.369277 -6.98087,0.762828 -10.468,1.17337 l -0.25333,0.0293 z"
       style="display:inline;fill:#ffffff;fill-opacity:1;fill-rule:nonzero;stroke:none;stroke-width:0.133333"
       id="path139"
       transform="matrix(1.7400626,0,0,1.8432814,-248.26752,-79.823904)" />
    <path
       id="path140"
       d="m 307.37979,78.485324 c 0,-0.452 -0.11333,-0.78533 -0.35066,-1.02133 -0.38142,-0.377023 -1.06302,-0.50934 -2.0227,-0.50934 l -1.55867,0.0147 v 3.29733 l 1.528,-0.0147 c 1.596,-0.0133 2.404,-0.608 2.404,-1.76667"
       style="display:inline;fill:#0b3820;fill-opacity:1;fill-rule:nonzero;stroke:none;stroke-width:0.133333"
       transform="matrix(1.7400626,0,0,1.8432814,-248.26752,-79.823904)" />
    <path
       id="path141"
       d="m 266.91076,80.166251 c 0,-0.59466 -0.14666,-1.02266 -0.44933,-1.308 -0.42133,-0.39866 -1.16667,-0.55466 -2.344,-0.48666 l -1.70533,0.0973 v 4.20933 l 1.68,-0.0973 c 1.87066,-0.10667 2.81866,-0.91867 2.81866,-2.41467"
       style="display:inline;fill:#0b3820;fill-opacity:1;fill-rule:nonzero;stroke:none;stroke-width:0.133333"
       transform="matrix(1.7400626,0,0,1.8432814,-248.26752,-79.823904)" />
    <path
       id="path142"
       d="m 308.19846,85.273324 c 10e-4,-0.51067 -0.13467,-0.89333 -0.416,-1.172 -0.44836,-0.445551 -1.24129,-0.63067 -2.46133,-0.63067 l -1.87334,0.0173 v 3.82933 l 1.87067,-0.0173 c 1.93867,-0.0147 2.88,-0.67734 2.88,-2.02667"
       style="display:inline;fill:#0b3820;fill-opacity:1;fill-rule:nonzero;stroke:none;stroke-width:0.133333"
       transform="matrix(1.7400626,0,0,1.8432814,-248.26752,-79.823904)" />
    <path
       id="path143"
       d="m 360.29307,88.624671 c 0.796,0.056 1.51467,-0.19734 2.08,-0.73067 0.88534,-0.83733 1.37334,-2.348 1.372,-4.256 0,-3.18267 -1.3,-5.15867 -3.47733,-5.28267 -0.48966,-0.03533 -1.37639,0.02237 -2.12667,0.73033 -0.864,0.816 -1.324,2.244 -1.32666,4.12933 0.003,3.21334 1.336,5.28667 3.47866,5.40934"
       style="display:inline;fill:#0b3820;fill-opacity:1;fill-rule:nonzero;stroke:none;stroke-width:0.133333"
       transform="matrix(1.7400626,0,0,1.8432814,-248.26752,-79.823904)" />
    <path
       id="path144"
       d="m 344.13875,86.637333 c 0.828,-0.8 1.248,-2.13333 1.24667,-3.95867 0.005,-3.40933 -1.428,-5.04666 -4.5,-5.15333 l -0.47867,-0.0147 v 10.09467 l 0.49334,0.016 c 1.436,0.052 2.50133,-0.272 3.23866,-0.984"
       style="display:inline;fill:#0b3820;fill-opacity:1;fill-rule:nonzero;stroke:none;stroke-width:0.133333"
       transform="matrix(1.7400626,0,0,1.8432814,-248.26752,-79.823904)" />
    <path
       id="path145"
       d="m 248.84,84.401292 c -0.42226,-1.506803 -0.78599,-3.02904 -1.16666,-4.54667 -0.356,1.568 -0.74934,3.28134 -1.14667,4.756 -0.10667,0.41867 -0.21333,0.83867 -0.32,1.25734 0.98667,-0.0773 1.97333,-0.15067 2.96133,-0.224 l -0.328,-1.24267"
       style="display:inline;fill:#0b3820;fill-opacity:1;fill-rule:nonzero;stroke:none;stroke-width:0.133333"
       transform="matrix(1.7400626,0,0,1.8432814,-248.26752,-79.823904)" />
    <path
       d="m 359.59131,219.12228 c 1.22694,-0.38529 16.47279,-6.19344 57.07406,-21.91293 l -0.007,0.002 c 0.002,0 0.008,-0.002 0.008,-0.002 l -34.39988,23.72919 h -0.0122 -0.002 l -22.67882,-1.79904 c 0.007,-0.006 0.0301,-0.0129 0.0417,-0.0166 z m 65.97174,-41.53026 c -1.13236,0 -95.49207,37.49171 -98.8102,37.55677 -2.14524,-0.52692 -35.59501,-8.72729 -57.51953,-14.09495 -6.95758,3.86061 -7.94059,4.40637 -26.81088,14.88635 -53.51196,-0.29321 21.50082,-0.0696 -25.3469,-0.22323 -41.96103,-0.14506 -90.54359,2.81409 -98.82164,3.37937 l 1.73772,-48.43899 98.7567,38.39432 c 0.35384,-1.13417 0.68532,-2.10812 1.1786,-3.40884 0.36657,-0.96342 0.7633,-1.92193 1.18324,-2.86814 0.19659,-0.44455 0.81233,-1.8229 1.54982,-3.23436 l -101.73801,-54.79459 0.43386,-12.09685 c 12.06676,-1.34191 28.32359,-3.07704 47.5246,-4.7655 l 61.80937,59.99513 c 0.92378,-1.04267 1.82883,-1.96166 2.42912,-2.55848 0.71923,-0.70536 1.46165,-1.39351 2.22033,-2.06201 0.95276,-0.83306 1.8169,-1.54057 2.70288,-2.22914 l -40.93555,-55.40414 c 9.6678,-0.6906 19.8135,-1.33206 30.32118,-1.8826 l 22.53497,50.31667 c 1.02538,-0.43163 1.94821,-0.7904 3.2226,-1.22884 0.93964,-0.32443 1.88158,-0.61445 2.83048,-0.87987 0.45631,-0.12793 1.82997,-0.50723 3.3363,-0.81842 l -10.58423,-48.35787 c 8.16932,-0.31798 18.45053,-0.61567 28.26093,-0.77909 l -4.1019,48.17844 c 0.94193,0.0569 1.80773,0.12996 3.41053,0.33172 0.97675,0.13032 1.94655,0.28756 2.90937,0.47188 1.15689,0.22295 1.98593,0.4002 3.3502,0.75698 l 13.98084,-49.91113 c 3.74565,0 14.46053,0.009 28.72035,0.35391 l -30.01723,54.73808 c 1.02701,0.58153 1.96644,1.16206 2.96274,1.82362 0.82827,0.55052 1.64495,1.12316 2.4477,1.72038 0.8958,0.64665 2.0727,1.63035 2.73776,2.18437 15.73537,-19.9778 31.71984,-39.75439 47.61043,-59.59945 18.47947,0.7963 36.1933,1.90964 52.41998,3.14342 l -90.61784,66.83492 c 0.33874,0.48417 0.67284,0.97572 0.99765,1.47462 0.14965,0.22586 0.97874,1.48477 1.72614,2.80179 0.31043,0.5355 0.84247,1.46091 1.58925,2.94679 0.26914,0.53825 0.5313,1.07649 0.78186,1.61717 L 445.4554,129.88332 c 7.3803,0.74168 15.40956,1.60005 21.50951,2.29305 l 2.42945,83.99836"
       style="display:inline;fill:#ffffff;fill-opacity:1;fill-rule:nonzero;stroke:none;stroke-width:0.238791"
       id="path136" />
    <path
       d="m 468.9345,285.10487 c -0.55913,7.08312 -1.70989,16.41749 -4.03229,27.3199 -3.11588,14.63073 -8.3523,32.07554 -17.0967,50.65337 -9.48682,20.16303 -23.10802,41.65569 -42.66402,62.33731 -60.56811,64.24452 -114.02282,79.06202 -114.02282,79.06202 0,0 -49.97924,-16.57723 -108.33398,-78.35173 -19.63257,-20.79469 -33.35353,-42.17428 -42.95173,-62.10139 -7.9254,-16.44944 -13.03654,-31.90352 -16.32643,-45.22676 -2.4036,-9.73007 -3.83741,-18.31976 -4.68657,-25.32423 -1.50109,-12.38192 -1.18557,-19.8165 -1.18557,-19.8165 12.96514,-7.85399 39.15654,-15.5048 41.2859,-16.11519 15.6072,-4.52463 35.75251,-9.04682 60.62148,-12.15337 19.52117,-2.43558 41.95406,-4.00115 67.38914,-4.00115 12.25469,0 23.9363,0.31951 35.04254,0.88969 95.68847,4.90326 147.23657,28.08022 147.40884,28.15797 0,0 0.27842,5.41433 -0.44779,14.67006"
       style="display:inline;fill:#ffffff;fill-opacity:1;fill-rule:nonzero;stroke:none;stroke-width:0.238791"
       id="path137" />
    <path
       id="path138"
       d="m 375.398,329.70088 -19.06643,-21.84164 11.22455,-11.17275 -11.98555,-13.54935 -7.12961,7.09295 1.0185,10.95154 -25.38635,-28.70848 -9.60049,-0.31459 -21.16381,19.91973 -0.27841,9.54327 20.40514,23.45638 c -1.64063,1.62986 -3.27931,3.26192 -4.91859,4.8933 l -24.70424,25.16693 -72.36108,-82.78054 -5.25267,-5.57653 -1.21109,39.95987 c -0.18562,6.2942 0.89788,10.21424 3.153,13.54198 0.2668,0.3957 0.54754,0.78893 0.84683,1.17477 2.73304,3.46538 5.64011,6.51048 11.8185,9.14761 11.01575,4.71142 23.72054,5.43644 23.84814,5.44382 l 5.71668,0.29492 c -1.91764,1.1196 -3.82874,2.25304 -5.78628,3.28842 -1.64031,0.7496 -5.98351,2.35694 -12.85326,2.13083 -4.51256,-0.14986 -9.74437,-0.96341 -15.5724,-2.42329 0.99299,1.16004 2.19478,2.46753 3.60308,3.9397 0.31554,0.32441 0.62409,0.64638 0.95819,0.99045 5.97189,6.11724 12.2686,8.35376 20.48401,9.98076 7.65861,1.52131 21.96889,3.63496 22.09417,3.65215 l 4.95803,0.73487 -3.99519,2.22667 -0.43154,0.24332 c -0.20415,0.11557 -5.11347,2.81408 -13.83234,2.52653 -5.80948,-0.18925 -10.83479,-1.21657 -14.35899,-2.17507 l 2.69824,3.1139 1.02317,1.18463 c 3.03931,3.50224 8.24789,6.35808 15.92274,8.73223 2.22031,0.6857 4.49863,1.27555 6.71432,1.79167 7.94396,1.84573 15.01789,2.63221 15.10605,2.64203 l 5.15292,0.56283 -3.03235,1.75725 -1.51271,0.87741 c -0.56377,0.32441 -5.73525,3.1434 -14.84853,2.54372 -2.62401,-0.17197 -5.33387,-0.58002 -8.08085,-1.20182 -0.0277,-0.006 -0.0534,-0.007 -0.0813,-0.0148 l 0.044,0.0516 -35.80121,35.62696 12.00178,13.53212 36.65502,-36.47729 c 7.34073,4.27641 19.36342,8.3095 29.21217,8.63393 l 15.83455,0.56773 26.87586,29.54411 14.08059,0.0148 -58.15521,-66.48102 25.46987,-25.34881 c 1.69693,-1.68988 3.39372,-3.37994 5.09026,-5.07024 l 19.02237,21.6647 9.60283,0.31703 21.16148,-19.92463 0.27841,-9.54083 -0.67515,-0.85775"
       style="display:inline;fill:#0b3720;fill-opacity:1;fill-rule:nonzero;stroke:none;stroke-width:0.238791" />
    <path
       d="m 383.1932,153.26973 0.21334,-0.0133 c 1.99066,-0.12667 3.984,-0.24667 5.97866,-0.35867 2.38667,-0.13333 4.17334,0.33333 5.28667,1.388 0.904,0.85333 1.36,2.088 1.36,3.66933 -6.4e-4,1.46586 -0.32565,2.58638 -1.04259,3.61559 -0.48414,0.69501 -1.49799,1.22546 -2.04624,1.50661 -1.24019,0.63601 -3.55313,0.89517 -3.8378,0.91117 -0.28466,0.016 -1.13866,0.0653 -1.70666,0.0973 v 5.97067 l -0.21334,0.0133 c -1.252,0.0733 -2.50133,0.14933 -3.75066,0.22667 l -0.24134,0.0173 z"
       style="display:inline;fill:#ffffff;fill-opacity:1;fill-rule:nonzero;stroke:none;stroke-width:0.133333"
       id="path134"
       transform="matrix(0.77809801,-0.67754792,0.80227005,0.69034011,2.4197944,358.42195)" />
    <path
       id="path135"
       d="m 391.91648,158.14641 c 0,-0.59466 -0.14666,-1.02266 -0.44933,-1.308 -0.42133,-0.39866 -1.16667,-0.55466 -2.344,-0.48666 l -1.70533,0.0973 v 4.20933 l 1.68,-0.0973 c 1.87066,-0.10667 2.81866,-0.91867 2.81866,-2.41467"
       style="display:inline;fill:#0b3720;fill-opacity:1;fill-rule:nonzero;stroke:none;stroke-width:0.133333"
       transform="matrix(0.77809801,-0.67754792,0.80227005,0.69034011,2.4197944,358.42195)" />
    <rect
       style="fill:#000000;stroke-width:7.04243;stroke-linejoin:round"
       id="rect134"
       width="79.370079"
       height="192.75591"
       x="253.08182"
       y="249.3419" />
    <rect
       style="fill:#000000;stroke-width:7.04243;stroke-linejoin:round"
       id="rect132"
       width="63.874016"
       height="215.43307"
       x="795.80371"
       y="78.037712"
       transform="translate(-445.54272,151.22733)" />
    <rect
       style="fill:#000000;stroke-width:7.04243;stroke-linejoin:round"
       id="rect133"
       width="63.874016"
       height="215.43307"
       x="616.93762"
       y="78.037712"
       transform="translate(-445.54272,151.22733)" />
    <rect
       style="fill:none;fill-opacity:1;stroke:#000000;stroke-width:2.08252;stroke-linejoin:round;stroke-dasharray:none;stroke-opacity:1"
       id="rect161"
       width="480.04614"
       height="538.4696"
       x="57.449741"
       y="5.8423467" />
  </g>
  <g
     id="layer13"
     style="display:none">
    <path
       id="path219"
       d="m 387.0955,24.419745 c -1.01012,-0.06138 -2.02269,-0.120366 -3.04018,-0.179351 -22.15624,-1.280473 -46.04272,-2.253725 -70.36666,-2.573221 -0.61441,-0.0074 -1.23131,-0.01474 -1.84819,-0.02212 -0.61688,-0.0092 -1.23378,-0.01474 -1.84819,-0.02212 -4.35997,-0.04424 -8.72732,-0.06636 -13.10696,-0.06636 -2.71823,0 -5.43399,0.0074 -8.15467,0.02452 -0.60706,0.0055 -1.21657,0.0092 -1.82363,0.01291 -0.6095,0.0074 -1.2141,0.01291 -1.82362,0.01659 -21.02324,0.196623 -41.99241,0.892148 -62.00306,1.867853 -0.6169,0.03189 -1.22887,0.06138 -1.84083,0.09345 -0.61443,0.0295 -1.22887,0.06138 -1.84328,0.09088 -7.49847,0.380951 -14.8544,0.801219 -22.01617,1.246058 -0.62915,0.04185 -1.26079,0.07871 -1.88751,0.120366 -0.63164,0.03926 -1.25835,0.07871 -1.88506,0.117971 -61.08636,3.917566 -107.200351,9.63419 -107.200351,9.63419 V 89.52683 l 0.643911,43.21634 0.02955,2.0522 0.0023,0.17197 0.02713,1.88015 0.324415,21.78513 0.03186,1.94404 0.02713,1.94405 1.595071,107.30603 c -0.314602,37.49231 8.955872,71.32514 23.672634,101.32147 42.34386,86.32455 129.78424,140.88079 163.70062,159.54707 l 14.48327,7.44931 13.76808,-7.44931 c 35.28532,-18.82849 126.53266,-74.01633 170.38557,-161.2945 14.81997,-29.49741 24.23054,-62.65928 24.23054,-99.32336 l 1.98092,-135.11991 0.73732,-50.287169 V 34.78131 c 0,0 -49.59903,-6.473605 -114.95196,-10.361694"
       style="display:inline;fill:#000000;fill-opacity:1;fill-rule:nonzero;stroke:none;stroke-width:0.245771"
       transform="translate(-56.408479,-4.8010866)" />
    <rect
       style="display:inline;fill:none;fill-opacity:1;stroke:#000000;stroke-width:2.08252;stroke-linejoin:round;stroke-dasharray:none;stroke-opacity:1"
       id="rect220"
       width="480.04614"
       height="538.4696"
       x="57.449741"
       y="5.8423467"
       transform="translate(-56.408479,-4.8010866)" />
  </g>
  <g
     id="layer11"
     style="display:none">
    <path
       d="m 359.59131,219.12228 c 1.22694,-0.38529 16.47279,-6.19344 57.07406,-21.91293 l -0.007,0.002 c 0.002,0 0.008,-0.002 0.008,-0.002 l -34.39988,23.72919 h -0.0122 -0.002 l -22.67882,-1.79904 c 0.007,-0.006 0.0301,-0.0129 0.0417,-0.0166 z m 65.97174,-41.53026 c -1.13236,0 -95.49207,37.49171 -98.8102,37.55677 -2.14524,-0.52692 -35.59501,-8.72729 -57.51953,-14.09495 -6.95758,3.86061 -7.94059,4.40637 -26.81088,14.88635 -53.51196,-0.29321 21.50082,-0.0696 -25.3469,-0.22323 -41.96103,-0.14506 -90.54359,2.81409 -98.82164,3.37937 l 1.73772,-48.43899 98.7567,38.39432 c 0.35384,-1.13417 0.68532,-2.10812 1.1786,-3.40884 0.36657,-0.96342 0.7633,-1.92193 1.18324,-2.86814 0.19659,-0.44455 0.81233,-1.8229 1.54982,-3.23436 l -101.73801,-54.79459 0.43386,-12.09685 c 12.06676,-1.34191 28.32359,-3.07704 47.5246,-4.7655 l 61.80937,59.99513 c 0.92378,-1.04267 1.82883,-1.96166 2.42912,-2.55848 0.71923,-0.70536 1.46165,-1.39351 2.22033,-2.06201 0.95276,-0.83306 1.8169,-1.54057 2.70288,-2.22914 l -40.93555,-55.40414 c 9.6678,-0.6906 19.8135,-1.33206 30.32118,-1.8826 l 22.53497,50.31667 c 1.02538,-0.43163 1.94821,-0.7904 3.2226,-1.22884 0.93964,-0.32443 1.88158,-0.61445 2.83048,-0.87987 0.45631,-0.12793 1.82997,-0.50723 3.3363,-0.81842 l -10.58423,-48.35787 c 8.16932,-0.31798 18.45053,-0.61567 28.26093,-0.77909 l -4.1019,48.17844 c 0.94193,0.0569 1.80773,0.12996 3.41053,0.33172 0.97675,0.13032 1.94655,0.28756 2.90937,0.47188 1.15689,0.22295 1.98593,0.4002 3.3502,0.75698 l 13.98084,-49.91113 c 3.74565,0 14.46053,0.009 28.72035,0.35391 l -30.01723,54.73808 c 1.02701,0.58153 1.96644,1.16206 2.96274,1.82362 0.82827,0.55052 1.64495,1.12316 2.4477,1.72038 0.8958,0.64665 2.0727,1.63035 2.73776,2.18437 15.73537,-19.9778 31.71984,-39.75439 47.61043,-59.59945 18.47947,0.7963 36.1933,1.90964 52.41998,3.14342 l -90.61784,66.83492 c 0.33874,0.48417 0.67284,0.97572 0.99765,1.47462 0.14965,0.22586 0.97874,1.48477 1.72614,2.80179 0.31043,0.5355 0.84247,1.46091 1.58925,2.94679 0.26914,0.53825 0.5313,1.07649 0.78186,1.61717 L 445.4554,129.88332 c 7.3803,0.74168 15.40956,1.60005 21.50951,2.29305 l 2.42945,83.99836"
       style="display:inline;fill:#000000;fill-opacity:1;fill-rule:nonzero;stroke:none;stroke-width:0.238791"
       id="path208"
       transform="translate(-56.408479,-4.8010866)" />
    <rect
       style="display:inline;fill:none;fill-opacity:1;stroke:#000000;stroke-width:2.08252;stroke-linejoin:round;stroke-dasharray:none;stroke-opacity:1"
       id="rect215"
       width="480.04614"
       height="538.4696"
       x="57.449741"
       y="5.8423467"
       transform="translate(-56.408479,-4.8010866)" />
  </g>
  <g
     id="layer9"
     style="display:none">
    <path
       id="path184"
       style="baseline-shift:baseline;display:inline;overflow:visible;vector-effect:none;enable-background:accumulate;stop-color:#000000;stop-opacity:1"
       d="m 240.47658,16.75586 c -2.71823,0 -5.43362,0.0063 -8.1543,0.02344 -0.60706,0.0055 -1.21716,0.01 -1.82422,0.01367 -0.6095,0.0074 -1.21274,0.01195 -1.82226,0.01563 -21.02324,0.196623 -41.99326,0.893436 -62.00391,1.869141 -0.6169,0.03189 -1.22984,0.06168 -1.8418,0.09375 -0.61443,0.0295 -1.22739,0.06034 -1.8418,0.08984 -7.49847,0.380951 -14.85581,0.801255 -22.01758,1.246094 -0.62915,0.04185 -1.26,0.07944 -1.88672,0.121094 -0.63164,0.03926 -1.25805,0.07793 -1.88476,0.117187 C 76.112864,24.26327 29.998049,29.980473 29.998049,29.980473 V 84.72657 l 0.644531,43.21484 0.0293,2.05274 0.002,0.17187 0.02734,1.88086 0.324219,21.78516 0.0332,1.94336 0.02539,1.94336 1.595704,107.30665 c -0.314602,37.49231 8.957067,71.32594 23.673829,101.32227 42.34386,86.32455 129.782848,140.8806 163.699228,159.54688 l 14.48437,7.44922 13.76758,-7.44922 c 35.28532,-18.82849 126.53187,-74.01676 170.38478,-161.29493 14.81997,-29.49741 24.23047,-62.66014 24.23047,-99.32422 l 1.98242,-135.11915 0.73633,-50.287112 V 29.980471 c 0,0 -49.59825,-6.47324 -114.95118,-10.361329 -1.01012,-0.06138 -2.02353,-0.120703 -3.04102,-0.179688 -22.15624,-1.280473 -46.04325,-2.254723 -70.36719,-2.574219 -0.61441,-0.0074 -1.23077,-0.0141 -1.84765,-0.02148 -0.61688,-0.0092 -1.23325,-0.0141 -1.84766,-0.02148 -4.35997,-0.04424 -8.72778,-0.06641 -13.10742,-0.06641 z m -0.30664,100.26563 c 3.74565,0 14.46088,0.009 28.7207,0.35352 l -30.01758,54.73828 c 1.02701,0.58153 1.96659,1.16266 2.96289,1.82422 0.82827,0.55052 1.64452,1.12348 2.44727,1.7207 0.8958,0.64665 2.07322,1.62958 2.73828,2.1836 15.73537,-19.9778 31.71879,-39.75456 47.60938,-59.59962 18.47947,0.7963 36.19324,1.91076 52.41992,3.14454 l -90.61719,66.83398 c 0.33874,0.48417 0.67324,0.97571 0.99805,1.47461 0.14965,0.22586 0.97721,1.48572 1.72461,2.80274 0.31043,0.5355 0.84306,1.45943 1.58984,2.94531 0.26914,0.53825 0.53069,1.07651 0.78125,1.61719 L 389.0469,125.08204 c 7.3803,0.74168 15.40982,1.59997 21.50977,2.29297 l 2.42968,83.99805 -43.83203,-38.58203 c -1.13236,0 -95.49242,37.49158 -98.81055,37.55664 -2.14524,-0.52692 -35.59502,-8.72804 -57.51954,-14.0957 -6.95758,3.86061 -7.94026,4.40673 -26.81055,14.88671 -53.51196,-0.29321 21.50202,-0.069 -25.3457,-0.22265 -41.96103,-0.14506 -90.544223,2.81363 -98.822273,3.37891 l 1.738281,-48.43946 98.755862,38.39453 c 0.35384,-1.13417 0.68446,-2.10748 1.17774,-3.4082 0.36657,-0.96342 0.76365,-1.92293 1.18359,-2.86914 0.19659,-0.44455 0.81329,-1.82292 1.55078,-3.23438 L 64.513676,139.94532 64.94727,127.84766 c 12.06676,-1.34191 28.324386,-3.07716 47.52539,-4.76562 l 61.8086,59.9961 c 0.92378,-1.04267 1.8294,-1.96178 2.42969,-2.5586 0.71923,-0.70536 1.46202,-1.394 2.2207,-2.0625 0.95276,-0.83306 1.81519,-1.53994 2.70117,-2.22851 l -40.93555,-55.4043 c 9.6678,-0.6906 19.81459,-1.33228 30.32227,-1.88282 l 22.53516,50.31641 c 1.02538,-0.43163 1.94827,-0.79007 3.22266,-1.22851 0.93964,-0.32443 1.88117,-0.61544 2.83007,-0.88086 0.45631,-0.12793 1.82961,-0.50717 3.33594,-0.81836 l -10.58398,-48.35743 c 8.16932,-0.31798 18.45132,-0.61587 28.26172,-0.77929 l -4.10352,48.17773 c 0.94193,0.0569 1.80931,0.13028 3.41211,0.33204 0.97675,0.13032 1.94538,0.28833 2.9082,0.47265 1.15689,0.22295 1.9873,0.40103 3.35157,0.75781 z" />
    <rect
       style="display:inline;fill:none;fill-opacity:1;stroke:#000000;stroke-width:2.08252;stroke-linejoin:round;stroke-dasharray:none;stroke-opacity:1"
       id="rect183"
       width="480.04614"
       height="538.4696"
       x="57.449741"
       y="5.8423467"
       transform="translate(-56.408479,-4.8010866)" />
  </g>
  <g
     id="layer10"
     style="display:none">
    <path
       d="m 359.59131,219.12228 c 1.22694,-0.38529 16.47279,-6.19344 57.07406,-21.91293 l -0.007,0.002 c 0.002,0 0.008,-0.002 0.008,-0.002 l -34.39988,23.72919 h -0.0122 -0.002 l -22.67882,-1.79904 c 0.007,-0.006 0.0301,-0.0129 0.0417,-0.0166 z m 65.97174,-41.53026 c -1.13236,0 -95.49207,37.49171 -98.8102,37.55677 -2.14524,-0.52692 -35.59501,-8.72729 -57.51953,-14.09495 -6.95758,3.86061 -7.94059,4.40637 -26.81088,14.88635 -53.51196,-0.29321 21.50082,-0.0696 -25.3469,-0.22323 -41.96103,-0.14506 -90.54359,2.81409 -98.82164,3.37937 l 1.73772,-48.43899 98.7567,38.39432 c 0.35384,-1.13417 0.68532,-2.10812 1.1786,-3.40884 0.36657,-0.96342 0.7633,-1.92193 1.18324,-2.86814 0.19659,-0.44455 0.81233,-1.8229 1.54982,-3.23436 l -101.73801,-54.79459 0.43386,-12.09685 c 12.06676,-1.34191 28.32359,-3.07704 47.5246,-4.7655 l 61.80937,59.99513 c 0.92378,-1.04267 1.82883,-1.96166 2.42912,-2.55848 0.71923,-0.70536 1.46165,-1.39351 2.22033,-2.06201 0.95276,-0.83306 1.8169,-1.54057 2.70288,-2.22914 l -40.93555,-55.40414 c 9.6678,-0.6906 19.8135,-1.33206 30.32118,-1.8826 l 22.53497,50.31667 c 1.02538,-0.43163 1.94821,-0.7904 3.2226,-1.22884 0.93964,-0.32443 1.88158,-0.61445 2.83048,-0.87987 0.45631,-0.12793 1.82997,-0.50723 3.3363,-0.81842 l -10.58423,-48.35787 c 8.16932,-0.31798 18.45053,-0.61567 28.26093,-0.77909 l -4.1019,48.17844 c 0.94193,0.0569 1.80773,0.12996 3.41053,0.33172 0.97675,0.13032 1.94655,0.28756 2.90937,0.47188 1.15689,0.22295 1.98593,0.4002 3.3502,0.75698 l 13.98084,-49.91113 c 3.74565,0 14.46053,0.009 28.72035,0.35391 l -30.01723,54.73808 c 1.02701,0.58153 1.96644,1.16206 2.96274,1.82362 0.82827,0.55052 1.64495,1.12316 2.4477,1.72038 0.8958,0.64665 2.0727,1.63035 2.73776,2.18437 15.73537,-19.9778 31.71984,-39.75439 47.61043,-59.59945 18.47947,0.7963 36.1933,1.90964 52.41998,3.14342 l -90.61784,66.83492 c 0.33874,0.48417 0.67284,0.97572 0.99765,1.47462 0.14965,0.22586 0.97874,1.48477 1.72614,2.80179 0.31043,0.5355 0.84247,1.46091 1.58925,2.94679 0.26914,0.53825 0.5313,1.07649 0.78186,1.61717 L 445.4554,129.88332 c 7.3803,0.74168 15.40956,1.60005 21.50951,2.29305 l 2.42945,83.99836"
       style="display:inline;fill:#000000;fill-opacity:1;fill-rule:nonzero;stroke:none;stroke-width:0.238791"
       id="path193"
       transform="translate(-56.408479,-4.8010866)" />
    <rect
       style="display:inline;fill:none;fill-opacity:1;stroke:#000000;stroke-width:2.08252;stroke-linejoin:round;stroke-dasharray:none;stroke-opacity:1"
       id="rect200"
       width="480.04614"
       height="538.4696"
       x="57.449741"
       y="5.8423467"
       transform="translate(-56.408479,-4.8010866)" />
  </g>
  <g
     id="layer7"
     transform="translate(-56.408482,-4.8010869)"
     style="display:none">
    <path
       d="m 297.02736,55.822268 c 2.97923,6.743824 5.9654,13.485061 8.9375,20.232423 v 11.226563 l 0.39258,0.0039 c 3.23818,0.02573 6.23872,0.06717 6.92968,0.08008 V 76.12891 c 2.97882,-6.677683 5.95794,-13.355899 8.93751,-20.033204 -2.5714,-0.04667 -5.1434,-0.09012 -7.71485,-0.130859 -4.98688,13.501244 -2.4825,6.802104 -3.91797,10.679688 -0.30393,0.833163 -0.61524,1.668096 -0.92383,2.533203 l -0.61132,-1.751953 c -1.54683,-4.426655 -2.78502,-7.967313 -4.15039,-11.56836 h -0.26563 c -2.70719,-0.02085 -6.18443,-0.03384 -7.61328,-0.03516 z m -14.35547,0.04687 c -3.30381,0.02691 -6.59892,0.06513 -9.90039,0.119141 l -0.39063,0.0059 v 31.414064 l 0.40039,-0.0078 c 3.57526,-0.05659 7.1501,-0.0979 10.72071,-0.125 7.29667,-0.05653 11.65255,-3.595338 11.65429,-9.466797 0,-3.583339 -1.72435,-6.221024 -4.76367,-7.351563 1.97208,-1.20182 3.33985,-3.847725 3.33985,-6.634766 0,-2.160326 -0.62034,-3.907468 -1.84766,-5.195313 -1.79808,-1.897345 -4.84417,-2.782328 -9.21289,-2.757813 z m -29.63672,0.56836 c -2.33965,0.06376 -4.6804,0.139026 -7.01953,0.222656 v 11.207032 c 0.002,2.919757 0.34171,6.220428 0.63867,9.132813 L 244.56056,72.1543 c -2.55105,-5.049991 -5.10447,-10.098016 -7.6582,-15.146485 -0.89981,0.03372 -2.8141,0.114347 -6.94532,0.300782 l -0.37695,0.01953 v 31.412111 l 0.41211,-0.01563 c 2.2016,-0.100594 4.40159,-0.196991 6.60351,-0.289063 V 77.183598 c -0.002,-2.779669 -0.31497,-5.876915 -0.5957,-8.607423 -0.0139,-0.172052 -0.0332,-0.340627 -0.0488,-0.507812 l 2.10157,4.826172 c 2.55509,5.062437 5.10569,10.12865 7.66015,15.191407 2.31223,-0.07841 4.62301,-0.157109 6.93555,-0.22461 l 0.38672,-0.01172 z m 83.67774,0.02734 v 31.414064 l 0.38281,0.01367 c 2.84443,0.08848 5.68841,0.181933 8.53516,0.285157 0.27841,0.0092 0.55508,0.01563 0.82422,0.01563 4.18542,0 7.5007,-1.226645 9.86718,-3.642579 2.56371,-2.624832 3.86328,-6.531684 3.86328,-11.619141 0.002,-10.079062 -5.28779,-15.82528 -14.89062,-16.181641 -2.7261,-0.09825 -5.45199,-0.189937 -8.17578,-0.273438 z m 41.92383,1.34375 c -3.79334,-0.216273 -7.01206,0.904213 -9.38086,3.273437 -2.7145,2.71578 -4.15451,6.911204 -4.15625,12.128907 0,9.916854 5.29533,16.64025 13.49219,17.13672 0.31089,0.02028 0.61795,0.0293 0.92187,0.0293 3.33861,0 6.22879,-1.134519 8.40039,-3.304688 2.75163,-2.750176 4.20725,-6.992826 4.20899,-12.269532 0.005,-9.825906 -5.28947,-16.49522 -13.48633,-16.994141 z m -166.8672,0.460937 c -3.59215,0.216713 -7.18479,0.441556 -10.77539,0.685547 v 31.41797 c 2.43877,-0.164809 4.87891,-0.320916 7.31836,-0.474609 v -11.00586 c 0.98836,-0.05899 1.97808,-0.120702 2.96875,-0.179687 1.01124,1.957229 5.48378,10.626432 5.51563,10.6875 2.73353,-0.151125 5.46697,-0.298186 8.20117,-0.435547 -6.02878,-10.961157 -1.76052,-3.221184 -6.65039,-12.09375 3.1994,-1.872774 4.98459,-5.08399 4.98633,-9.279298 0,-2.914836 -0.79222,-5.190745 -2.36524,-6.763672 -1.93726,-1.944053 -5.04626,-2.804359 -9.19922,-2.558594 z m 186.33009,1.416016 v 31.419923 c 2.19203,0.161011 6.02902,0.459368 7.31641,0.564453 V 60.253909 c -1.26108,-0.101458 -4.57278,-0.362291 -7.31641,-0.568359 z m -211.15236,0.285156 -0.30859,0.02734 c -2.69337,0.207948 -5.38599,0.421248 -8.07812,0.646484 -3.10461,10.742058 -6.21052,21.484342 -9.3086,32.228517 4.50669,-0.403509 7.0188,-0.620101 7.53125,-0.660156 0.14944,-0.64358 1.3684,-5.7199 1.78125,-7.435547 2.72609,-0.226115 5.45713,-0.448806 8.18555,-0.660156 l 1.77344,7.150391 c 2.57781,-0.197574 5.15733,-0.388787 7.73633,-0.56836 -3.10363,-10.243119 -6.20468,-20.486837 -9.31251,-30.728517 z m 227.4258,1.027344 v 31.419923 c 2.33453,0.201224 4.6686,0.406784 7.00195,0.623047 V 81.734379 c 0,-2.784571 -0.31339,-5.929815 -0.5918,-8.707032 -0.0139,-0.1155 -0.0232,-0.233592 -0.0371,-0.351562 l 2.07618,5.048828 c 2.54273,5.390616 5.08331,10.783478 7.61914,16.177735 2.44235,0.244888 4.88444,0.484464 7.32617,0.736329 V 63.222659 l -0.35352,-0.03711 c -2.07184,-0.213821 -4.14143,-0.42491 -6.21093,-0.628906 l -0.43164,-0.04102 v 11.263673 c -0.005,2.868145 0.32681,6.156034 0.61914,9.058594 v 0.01563 l -2.06446,-5.072266 c -2.53859,-5.377639 -5.07823,-10.753536 -7.62109,-16.128907 -2.44361,-0.219758 -4.88771,-0.443096 -7.33203,-0.654297 z m -249.58595,0.865234 c -4.95076,0.452876 -15.36701,1.505272 -18.84571,1.892579 V 95.17188 c 9.46683,-0.998279 16.22165,-1.661381 19.28907,-1.931641 V 86.60352 c -3.99663,0.372982 -7.99064,0.763489 -11.98438,1.169922 v -6.203125 c 3.27344,-0.333769 6.54667,-0.659433 9.82227,-0.968751 v -6.638672 c -3.27508,0.314276 -6.54911,0.628779 -9.82227,0.964844 v -5.300781 c 5.59211,-0.56803 10.75166,-1.054993 11.54102,-1.125 z m 117.67578,0.16211 c 1.66991,0 2.85584,0.244493 3.51954,0.939453 0.41297,0.435014 0.60937,1.047696 0.60937,1.880859 0,2.135755 -1.4045,3.233297 -4.18164,3.257813 l -2.66016,0.02734 v -6.078126 z m 61.59766,1.02539 0.83399,0.02539 c 5.34547,0.196623 7.83878,3.215646 7.83008,9.5 0.002,3.364616 -0.72915,5.822251 -2.16993,7.296876 -1.283,1.312416 -3.13603,1.910304 -5.63476,1.814453 l -0.85938,-0.0293 z M 378.2715,64.5918 c 0.12628,7.76e-4 0.2431,0.0075 0.34961,0.01563 3.78869,0.228567 6.05078,3.869773 6.05078,9.736329 0.002,3.51698 -0.84617,6.302268 -2.38671,7.845703 -0.98371,0.983077 -2.23601,1.45088 -3.6211,1.347657 v -0.002 c -3.72836,-0.226115 -6.04751,-4.047614 -6.05273,-9.970703 0.005,-3.475194 0.80518,-6.107211 2.30859,-7.611329 1.14235,-1.141848 2.46758,-1.366756 3.35156,-1.361328 z m -166.22461,0.01758 c 1.63068,-0.01888 2.70421,0.280842 3.3457,0.923828 0.52666,0.525962 0.78125,1.315984 0.78125,2.41211 0,2.757549 -1.64923,4.254549 -4.9043,4.451172 l -2.92383,0.179687 v -7.759766 l 2.9668,-0.179687 c 0.25609,-0.01567 0.50142,-0.02465 0.73438,-0.02734 z m 243.21095,0.25 c -2.7927,0.228221 -5.30784,1.315572 -7.26368,3.169922 -2.83746,2.686269 -4.33398,6.747633 -4.33398,11.744141 -0.007,9.703033 5.66307,16.645439 14.44922,17.687501 0.5893,0.06875 1.17743,0.103516 1.75976,0.103516 3.15068,0 6.12268,-0.995196 8.03907,-2.75 l 0.13672,-0.123047 V 80.031254 c -3.31808,-0.419002 -6.99134,-0.865787 -10.89649,-1.324219 l -0.43945,-0.05469 v 6.486328 c 3.87968,0.463364 0.70007,0.07154 4.77148,0.566406 v 4.669922 c -0.6125,0.34169 -1.60209,0.487554 -2.61133,0.367188 -5.06939,-0.602145 -7.74804,-4.219807 -7.74804,-10.464844 -0.002,-3.140952 0.83249,-5.591147 2.41015,-7.087891 1.22964,-1.167406 2.87478,-1.659133 4.72852,-1.445313 2.32241,0.275276 3.75687,1.382591 5.19531,2.962891 l 0.29297,0.320312 3.94727,-4.61914 -0.23243,-0.279297 c -1.74006,-2.079222 -4.77111,-4.671245 -9.33007,-5.207032 -0.98198,-0.118583 -1.94411,-0.138573 -2.875,-0.0625 z m -327.24026,0.933594 c -2.31682,0.278654 -4.63387,0.561356 -6.94921,0.853516 l -0.34766,0.04102 v 31.42187 l 0.43945,-0.05469 c 6.06783,-0.756744 12.13898,-1.481428 18.21485,-2.162109 v -6.640625 l -0.4336,0.05078 c -3.64717,0.407973 -7.28593,0.831567 -10.92383,1.271484 z m 54.68165,1.578125 c 0.66239,2.797419 1.29649,5.603398 2.03125,8.38086 l 0.57031,2.291016 c -1.71918,0.135167 -3.43548,0.269623 -5.15234,0.412109 0.18561,-0.771727 0.37102,-1.546633 0.55664,-2.318359 0.69138,-2.718214 1.37468,-5.875361 1.99414,-8.765626 z m 100.31055,6.664063 c 2.12295,0 3.50303,0.342787 4.2832,1.164062 0.48953,0.513668 0.72635,1.218848 0.72461,2.160157 0,2.487195 -1.63831,3.707279 -5.01172,3.734375 l -3.25586,0.0332 v -7.058594 z"
       style="baseline-shift:baseline;display:inline;overflow:visible;vector-effect:none;enable-background:accumulate;stop-color:#000000;stop-opacity:1"
       id="path163" />
    <path
       d="m 286.93165,241.38673 c -25.43508,0 -47.86945,1.56637 -67.39062,4.00195 -24.86897,3.10655 -45.0139,7.62772 -60.6211,12.15235 -2.12936,0.61039 -28.32002,8.26124 -41.28516,16.11523 0,0 -0.31554,7.43449 1.18555,19.81641 0.84916,7.00447 2.28195,15.59415 4.68555,25.32422 3.28989,13.32324 8.40077,28.77713 16.32617,45.22657 9.5982,19.92711 23.32056,41.30687 42.95313,62.10156 58.35474,61.7745 108.33399,78.35157 108.33399,78.35157 0,0 53.45338,-14.81603 114.02149,-79.06055 19.556,-20.68162 33.17724,-42.17487 42.66406,-62.3379 8.7444,-18.57783 13.98178,-36.02357 17.09766,-50.6543 2.3224,-10.90241 3.47212,-20.23524 4.03125,-27.31836 0.72621,-9.25573 0.44922,-14.66992 0.44922,-14.66992 -0.17227,-0.0778 -51.7217,-23.25494 -147.41017,-28.1582 -11.10624,-0.57018 -22.78633,-0.89063 -35.04102,-0.89063 z m -80.73242,25.39453 5.25195,5.57618 72.36133,82.78125 24.70508,-25.16797 c 1.63928,-1.63138 3.27734,-3.26272 4.91797,-4.89258 l -20.4043,-23.45703 0.27735,-9.54297 21.16406,-19.91992 9.59961,0.31445 25.38672,28.70899 -1.01758,-10.95118 7.12891,-7.09375 11.98633,13.54883 -11.22461,11.17383 19.06641,21.8418 0.67382,0.85742 -0.27734,9.54102 -21.16211,19.92383 -9.60352,-0.31641 -19.02148,-21.66406 c -1.69654,1.6903 -3.39292,3.38043 -5.08985,5.07031 l -25.4707,25.34766 58.15625,66.48242 -14.08203,-0.0156 -26.875,-29.54493 -15.83399,-0.5664 c -9.84875,-0.32443 -21.87216,-4.35836 -29.21289,-8.63477 l -36.6543,36.47656 -12.00195,-13.53125 35.80078,-35.62695 -0.0449,-0.0508 c 0.0279,0.008 0.0543,0.008 0.082,0.0137 2.74698,0.6218 5.45802,1.03115 8.08203,1.20312 9.11328,0.59968 14.28389,-2.22051 14.84766,-2.54492 l 1.51172,-0.87695 3.0332,-1.75781 -5.15234,-0.5625 c -0.0882,-0.01 -7.16346,-0.79685 -15.10742,-2.64258 -2.21569,-0.51612 -4.49258,-1.10532 -6.71289,-1.79102 -7.67485,-2.37415 -12.88452,-5.23018 -15.92383,-8.73242 l -1.02344,-1.18359 -2.69727,-3.11524 c 3.5242,0.9585 8.5499,1.98653 14.35938,2.17578 8.71887,0.28755 13.62788,-2.41177 13.83203,-2.52734 l 0.43164,-0.24219 3.99414,-2.22656 -4.95703,-0.73633 c -0.12528,-0.0172 -14.43514,-2.13103 -22.09375,-3.65234 -8.21541,-1.627 -14.51249,-3.86323 -20.48438,-9.98047 -0.3341,-0.34407 -0.64344,-0.66583 -0.95898,-0.99024 -1.4083,-1.47217 -2.61053,-2.77941 -3.60352,-3.93945 5.82803,1.45988 11.06166,2.27397 15.57422,2.42383 6.86975,0.22611 11.21126,-1.38126 12.85157,-2.13086 1.95754,-1.03538 3.86947,-2.16946 5.78711,-3.28906 l -5.7168,-0.29493 c -0.1276,-0.007 -12.83191,-0.73193 -23.84766,-5.44335 -6.17839,-2.63713 -9.08532,-5.68306 -11.81836,-9.14844 -0.29929,-0.38584 -0.58085,-0.77813 -0.84765,-1.17383 -2.25512,-3.32774 -3.33797,-7.24877 -3.15235,-13.54297 z"
       style="baseline-shift:baseline;display:inline;overflow:visible;vector-effect:none;enable-background:accumulate;stop-color:#000000;stop-opacity:1"
       id="path167" />
    <path
       d="m 433.29104,197.52345 c -1.71241,0.0263 -3.47647,0.91392 -5.22657,2.62304 -1.46218,1.4288 -2.91597,2.86262 -4.36328,4.29883 l -0.15625,0.15235 13.67383,11.76758 0.17383,-0.17579 c 0.91005,-0.89987 1.82096,-1.79837 2.73633,-2.69726 l 0.15625,-0.1543 -4.79102,-4.12305 c 0.41629,-0.40693 1.04135,-1.01874 1.25,-1.22265 0.20867,-0.20393 1.80112,-1.94917 2.25586,-3.22852 0.20104,-0.56555 0.56369,-1.61991 0.38281,-2.42773 -0.26785,-1.19627 -0.91237,-2.1888 -2.08789,-3.20117 -1.26865,-1.09166 -2.6159,-1.63475 -4.0039,-1.61133 z m -0.44532,3.93164 c 0.46443,-0.008 0.92332,0.18909 1.4004,0.59961 1.20019,1.03275 1.11411,2.23507 -0.25586,3.57617 l -1.23047,1.20508 -3.37696,-2.9043 1.25,-1.22266 c 0.86153,-0.84464 1.56523,-1.24364 2.21289,-1.2539 z"
       style="baseline-shift:baseline;display:inline;overflow:visible;vector-effect:none;enable-background:accumulate;stop-color:#000000;stop-opacity:1"
       id="path165" />
    <rect
       style="display:inline;fill:none;fill-opacity:1;stroke:#000000;stroke-width:2.08252;stroke-linejoin:round;stroke-dasharray:none;stroke-opacity:1"
       id="rect162"
       width="480.04614"
       height="538.4696"
       x="57.449741"
       y="5.8423467" />
  </g>
  <g
     id="layer12"
     style="display:none">
    <rect
       style="display:inline;fill:#000000;stroke-width:7.04243;stroke-linejoin:round"
       id="rect216"
       width="79.370079"
       height="192.75591"
       x="253.08182"
       y="249.3419"
       transform="translate(-56.408479,-4.8010866)" />
    <rect
       style="display:inline;fill:#000000;stroke-width:7.04243;stroke-linejoin:round"
       id="rect217"
       width="63.874016"
       height="215.43307"
       x="795.80371"
       y="78.037712"
       transform="translate(-501.95117,146.42623)" />
    <rect
       style="display:inline;fill:#000000;stroke-width:7.04243;stroke-linejoin:round"
       id="rect218"
       width="63.874016"
       height="215.43307"
       x="616.93762"
       y="78.037712"
       transform="translate(-501.95117,146.42623)" />
    <rect
       style="display:inline;fill:none;fill-opacity:1;stroke:#000000;stroke-width:2.08252;stroke-linejoin:round;stroke-dasharray:none;stroke-opacity:1"
       id="rect219"
       width="480.04614"
       height="538.4696"
       x="57.449741"
       y="5.8423467"
       transform="translate(-56.408479,-4.8010866)" />
  </g>
  <g
     id="layer1">
    <path
       id="path219-2"
       d="m 330.68649,19.619759 c -1.01012,-0.06138 -2.02269,-0.120366 -3.04018,-0.179351 -22.15624,-1.280473 -46.04272,-2.253725 -70.36666,-2.573221 -0.61441,-0.0074 -1.23131,-0.01474 -1.84819,-0.02212 -0.61688,-0.0092 -1.23378,-0.01474 -1.84819,-0.02212 -4.35997,-0.04424 -8.72732,-0.06636 -13.10696,-0.06636 -2.71823,0 -5.43399,0.0074 -8.15467,0.02452 -0.60706,0.0055 -1.21657,0.0092 -1.82363,0.01291 -0.6095,0.0074 -1.2141,0.01291 -1.82362,0.01659 -21.02324,0.196623 -41.99241,0.892148 -62.00306,1.867853 -0.6169,0.03189 -1.22887,0.06138 -1.84083,0.09345 -0.61443,0.0295 -1.22887,0.06138 -1.84328,0.09088 -7.49847,0.380951 -14.8544,0.801219 -22.01617,1.246058 -0.62915,0.04185 -1.26079,0.07871 -1.88751,0.120366 -0.63164,0.03926 -1.25835,0.07871 -1.88506,0.117971 -61.086358,3.917566 -105.980112,8.004167 -107.200349,9.63419 -1.220237,1.630023 0,54.745469 0,54.745469 l 0.643911,43.216336 0.02955,2.0522 0.0023,0.17197 0.02713,1.88015 0.324415,21.78513 0.03186,1.94404 0.02713,1.94405 1.595071,107.30603 c -0.314602,37.49231 8.955872,71.32514 23.672634,101.32147 42.34386,86.32455 129.784238,140.88079 163.700618,159.54707 0,0 13.03142,7.43987 14.48327,7.44931 1.45185,0.009 13.76808,-7.44931 13.76808,-7.44931 35.28532,-18.82849 126.53266,-74.01633 170.38557,-161.2945 14.81997,-29.49741 24.23054,-62.65928 24.23054,-99.32336 l 1.98092,-135.11991 0.73732,-50.287165 c 0,0 1.2399,-48.663759 0,-49.889031 -1.2399,-1.225272 -49.59903,-6.473605 -114.95196,-10.361694"
       style="display:none;fill:none;fill-opacity:1;fill-rule:nonzero;stroke:#000000;stroke-width:0.245771;stroke-opacity:1" />
    <path
       d="m 359.59131,219.12228 c 1.22694,-0.38529 16.47279,-6.19344 57.07406,-21.91293 l -0.007,0.002 c 0.002,0 0.008,-0.002 0.008,-0.002 l -34.39988,23.72919 h -0.0122 -0.002 l -22.67882,-1.79904 c 0.007,-0.006 0.0301,-0.0129 0.0417,-0.0166 z m 65.97174,-41.53026 c -1.13236,0 -95.49207,37.49171 -98.8102,37.55677 -2.14524,-0.52692 -35.59501,-8.72729 -57.51953,-14.09495 -6.95758,3.86061 -7.94059,4.40637 -26.81088,14.88635 -53.51196,-0.29321 21.50082,-0.0696 -25.3469,-0.22323 -41.96103,-0.14506 -90.54359,2.81409 -98.82164,3.37937 l 1.73772,-48.43899 98.7567,38.39432 c 0.35384,-1.13417 0.68532,-2.10812 1.1786,-3.40884 0.36657,-0.96342 0.7633,-1.92193 1.18324,-2.86814 0.19659,-0.44455 0.81233,-1.8229 1.54982,-3.23436 l -101.73801,-54.79459 0.43386,-12.09685 c 12.06676,-1.34191 28.32359,-3.07704 47.5246,-4.7655 l 61.80937,59.99513 c 0.92378,-1.04267 1.82883,-1.96166 2.42912,-2.55848 0.71923,-0.70536 1.46165,-1.39351 2.22033,-2.06201 0.95276,-0.83306 1.8169,-1.54057 2.70288,-2.22914 l -40.93555,-55.40414 c 9.6678,-0.6906 19.8135,-1.33206 30.32118,-1.8826 l 22.53497,50.31667 c 1.02538,-0.43163 1.94821,-0.7904 3.2226,-1.22884 0.93964,-0.32443 1.88158,-0.61445 2.83048,-0.87987 0.45631,-0.12793 1.82997,-0.50723 3.3363,-0.81842 l -10.58423,-48.35787 c 8.16932,-0.31798 18.45053,-0.61567 28.26093,-0.77909 l -4.1019,48.17844 c 0.94193,0.0569 1.80773,0.12996 3.41053,0.33172 0.97675,0.13032 1.94655,0.28756 2.90937,0.47188 1.15689,0.22295 1.98593,0.4002 3.3502,0.75698 l 13.98084,-49.91113 c 3.74565,0 14.46053,0.009 28.72035,0.35391 l -30.01723,54.73808 c 1.02701,0.58153 1.96644,1.16206 2.96274,1.82362 0.82827,0.55052 1.64495,1.12316 2.4477,1.72038 0.8958,0.64665 2.0727,1.63035 2.73776,2.18437 15.73537,-19.9778 31.71984,-39.75439 47.61043,-59.59945 18.47947,0.7963 36.1933,1.90964 52.41998,3.14342 l -90.61784,66.83492 c 0.33874,0.48417 0.67284,0.97572 0.99765,1.47462 0.14965,0.22586 0.97874,1.48477 1.72614,2.80179 0.31043,0.5355 0.84247,1.46091 1.58925,2.94679 0.26914,0.53825 0.5313,1.07649 0.78186,1.61717 L 445.4554,129.88332 c 7.3803,0.74168 15.40956,1.60005 21.50951,2.29305 l 2.42945,83.99836"
       style="display:none;fill:#000000;fill-opacity:1;fill-rule:nonzero;stroke:#000000;stroke-width:0.238791;stroke-opacity:1"
       id="path2"
       transform="translate(-56.408476,-4.8010863)" />
    <g
       id="layer2"
       style="display:inline"
       transform="matrix(0.49232536,0,0,0.49232536,179.742,-14.240658)">
      <path
         id="path1-5"
         style="display:inline;fill:#000000;stroke:#000000;stroke-width:0.264583"
         d="m 115.63639,81.839052 c 0.0592,0.0042 0.11601,0.0519 -0.0912,2.86031 -0.20725,2.808413 -0.68061,8.37415 -0.90055,11.258752 -0.21994,2.884602 -0.18718,3.087552 -0.11108,3.197518 0.0761,0.109963 0.19435,0.13056 0.64268,-0.05554 0.44833,-0.186099 1.22974,-0.578524 2.70162,-1.356763 1.47189,-0.77824 3.63418,-1.946037 4.78041,-2.550873 1.14623,-0.60484 1.27404,-0.646079 1.39247,-0.654579 0.11843,-0.0085 0.2296,0.01642 0.3015,0.07141 0.0719,0.05498 0.10427,0.140589 -0.29754,2.606413 -0.4018,2.465824 -1.23874,7.313731 -1.67016,9.898021 -0.43138,2.5843 -0.45728,2.90378 -0.44036,3.09834 0.0169,0.19452 0.0781,0.2642 0.16266,0.2896 0.0846,0.0254 0.19206,0.01 0.29357,-0.0159 0.1015,-0.0254 0.1971,-0.0619 5.71665,-3.22132 5.51954,-3.15947 16.46546,-9.442769 21.99781,-12.623447 5.53235,-3.180678 5.65163,-3.256792 5.74045,-3.260992 0.0888,-0.0042 0.14468,0.06167 0.17852,0.154719 0.0338,0.09305 0.0436,0.213727 -2.13035,2.97139 -2.17399,2.757664 -6.52939,8.15275 -8.77532,10.96122 -2.24593,2.80847 -2.38057,3.02964 -2.43979,3.17768 -0.0593,0.14803 -0.0428,0.22303 0.008,0.27373 0.0507,0.0508 0.13467,0.0774 1.86456,-0.0833 1.72988,-0.16073 5.10547,-0.50759 6.83538,-0.63871 1.72992,-0.13113 1.81459,-0.0462 1.85266,0.0595 0.0381,0.10574 0.0293,0.23009 -2.2335,2.91585 -2.26281,2.68576 -6.77932,7.93344 -9.02525,10.63194 -2.24593,2.6985 -2.22052,2.85062 -2.174,2.94362 0.0465,0.093 0.11472,0.12349 4.27658,-0.46019 4.16186,-0.58368 12.41622,-1.78128 16.58663,-2.41995 4.17041,-0.63867 4.25618,-0.71546 4.26468,-0.8212 0.008,-0.10573 -0.0604,-0.2434 -0.17456,-0.41259 -0.1142,-0.16918 -0.27366,-0.37117 -1.74554,-1.6781 -1.47188,-1.30693 -4.25793,-3.71886 -5.64524,-4.97083 -1.38733,-1.25197 -1.37843,-1.34493 -1.34883,-1.40833 0.0296,-0.0634 0.082,-0.0953 7.58517,-0.0873 7.5032,0.008 22.45824,0.0579 29.93607,0.0833 7.47783,0.0254 7.47992,0.0283 7.51376,0.0833 0.0338,0.055 0.0992,0.16193 0.0992,0.23803 1e-5,0.0761 -0.0685,0.11773 -3.8878,1.28932 -3.81927,1.17158 -11.38726,3.47369 -15.2616,4.71297 -3.87433,1.23928 -4.05523,1.41767 -4.10599,1.58685 -0.0507,0.16918 0.0261,0.3278 1.39644,1.6305 1.37037,1.3027 4.03419,3.75089 5.44688,5.06207 1.4127,1.31118 1.57735,1.48721 1.60273,1.62256 0.0254,0.13535 -0.0869,0.22719 -2.5231,0.7855 -2.43623,0.55831 -7.19806,1.58105 -9.60049,2.18589 -2.40239,0.60483 -2.44586,0.7914 -2.41202,0.95212 0.0338,0.16073 0.14456,0.2975 4.78437,4.00681 4.63981,3.70931 13.80784,10.99233 18.43928,14.71017 4.63144,3.71784 4.7251,3.86907 4.7209,3.97904 -0.004,0.10997 -0.1032,0.1801 -0.23009,0.2182 -0.1269,0.0381 -0.28111,0.0453 -4.51064,-1.32503 -4.22953,-1.37037 -12.53634,-4.11986 -16.81672,-5.49449 -4.28038,-1.37463 -4.53241,-1.37257 -4.69313,-1.24568 -0.16073,0.12688 -0.23087,0.37876 0.35704,2.07481 0.58791,1.69605 1.8344,4.83538 2.38425,6.44264 0.54985,1.60725 0.40616,1.68364 0.2539,1.72174 -0.15226,0.0381 -0.31367,0.0359 -2.48343,-0.67045 -2.16976,-0.70634 -6.35058,-2.11879 -8.53729,-2.81667 -2.18672,-0.6979 -2.38114,-0.6791 -2.49534,-0.603 -0.11416,0.0761 -0.14915,0.20874 -0.11108,0.36101 0.0381,0.15226 0.15035,0.32421 2.01134,2.96345 1.861,2.63923 5.47317,7.74801 7.35112,10.36615 1.87795,2.61814 2.02278,2.7439 2.15813,2.7651 0.13534,0.0212 0.25999,-0.0615 1.3766,-2.01135 1.1166,-1.94982 3.22264,-5.76758 4.35195,-7.75973 1.12931,-1.99215 1.28093,-2.159 1.41627,-2.2097 0.13535,-0.0508 0.25334,0.0143 1.28536,3.8759 1.03201,3.86157 2.98044,11.51971 4.75263,18.50276 1.7722,6.98305 3.36873,13.29169 4.12583,16.45967 0.7571,3.16796 0.67488,3.19435 0.53953,3.18165 -0.13535,-0.0127 -0.32301,-0.0661 -0.48796,-0.15075 -0.16494,-0.0846 -0.30678,-0.2015 -2.45962,-2.83651 -2.15284,-2.63501 -6.31461,-7.78692 -8.50556,-10.48119 -2.19094,-2.69427 -2.41211,-2.93066 -2.60244,-3.01106 -0.19034,-0.0804 -0.35147,-0.003 -0.82517,1.13064 -0.47371,1.13352 -1.26203,3.32458 -1.7019,4.66536 -0.43988,1.34079 -0.53219,1.83218 -0.65062,2.16209 -0.11842,0.3299 -0.26005,0.49834 -0.41655,0.58714 -0.15649,0.0888 -0.32593,0.0957 -0.50779,0.0238 -0.18186,-0.0719 -0.37696,-0.22366 -2.16606,-2.75716 -1.7891,-2.53349 -5.17212,-7.44752 -6.91473,-9.9853 -1.74261,-2.53777 -1.84321,-2.69877 -1.99547,-2.74527 -0.15227,-0.0465 -0.35684,0.0209 -0.48796,0.13092 -0.13113,0.10997 -0.19031,0.26245 -1.02353,3.13008 -0.83322,2.86763 -2.43887,8.45165 -3.28479,11.36586 -0.84592,2.91421 -0.93365,3.15765 -1.03939,3.28876 -0.10574,0.13116 -0.23042,0.14895 -0.35308,0.11505 -0.12265,-0.0338 -0.24371,-0.11885 -1.04732,-1.4004 -0.80362,-1.28155 -2.28996,-3.76096 -3.10628,-5.10175 -0.81631,-1.34079 -0.9604,-1.54275 -1.1465,-1.6781 -0.1861,-0.13536 -0.41559,-0.20239 -0.62284,-0.19439 -0.20725,0.008 -0.39229,0.0932 -2.70163,1.85266 -2.30933,1.75949 -6.74075,5.19227 -9.09665,7.05754 -2.3559,1.86526 -2.6369,2.16061 -2.78494,2.37632 -0.14804,0.21571 -0.1658,0.35419 -0.11505,0.46416 0.0508,0.10997 0.16899,0.19139 2.30491,0.55936 2.13592,0.36797 6.29003,1.02237 8.49366,1.36073 2.20363,0.33837 2.45627,0.36109 2.63815,0.42449 0.18187,0.0634 0.29173,0.16453 0.32134,0.26183 0.0296,0.0973 -0.0188,0.19264 -6.04593,3.67357 -6.02711,3.48093 -18.03013,10.35006 -24.17577,13.80566 -6.14564,3.4556 -6.43266,3.49689 -6.59339,3.46729 -0.16072,-0.0296 -0.1961,-0.12954 2.26127,-2.70956 2.45737,-2.58001 7.40628,-7.63933 9.96943,-10.28284 2.56315,-2.64352 2.73919,-2.8723 2.77303,-3.06263 0.0338,-0.19033 -0.0752,-0.34255 -0.20629,-0.44829 -0.13112,-0.10574 -0.28427,-0.16464 -2.35251,-0.45225 -2.06825,-0.2876 -6.04905,-0.80627 -8.17232,-1.1108 -2.12327,-0.30453 -2.38695,-0.39486 -2.535,-0.48796 -0.14804,-0.0931 -0.18162,-0.18491 2.10655,-2.44773 2.28818,-2.26282 6.89787,-6.6987 9.27915,-9.02922 2.38128,-2.33052 2.53158,-2.55676 2.58657,-2.71749 0.055,-0.16072 0.0142,-0.25341 -0.0873,-0.32531 -0.1015,-0.0719 -0.26119,-0.12449 -3.27686,0.0278 -3.01567,0.15226 -8.88519,0.50707 -11.90936,0.64665 -3.02418,0.1396 -3.20287,0.0645 -3.3086,-0.0159 -0.10573,-0.0804 -0.14112,-0.16408 1.68604,-1.99547 1.82716,-1.83139 5.51787,-5.40942 7.44235,-7.29161 1.92448,-1.88218 2.08304,-2.06933 2.14226,-2.2216 0.0592,-0.15226 0.0177,-0.27221 -0.0754,-0.36101 -0.093,-0.0888 -0.23626,-0.14759 -2.56674,-0.13489 -2.33047,0.0127 -6.84894,0.0989 -9.25137,0.16662 -2.40242,0.0677 -2.68797,0.11732 -4.50668,0.97592 -1.81871,0.8586 -5.170812,2.52753 -6.934562,3.47919 -1.76375,0.95166 -1.94151,1.18679 -1.97961,1.36866 -0.03807,0.18187 0.06288,0.30716 1.54322,1.04733 1.48034,0.74017 4.340782,2.09659 5.863442,2.83254 1.52266,0.73595 1.70831,0.85352 1.79711,0.97195 0.0888,0.11843 0.0808,0.23758 -0.26183,0.37291 -0.3426,0.13533 -1.01912,0.28624 -2.30491,0.46812 -1.28579,0.18187 -3.182142,0.39442 -4.772472,0.55937 -1.59032,0.16496 -2.87399,0.28437 -8.66424,0.94418 -5.79026,0.65981 -16.08689,1.86008 -21.39084,2.44376 -5.30395,0.58367 -5.61622,0.54692 -5.76425,0.49192 -0.14802,-0.055 -0.12976,-0.12844 2.79286,-1.51148 2.92261,-1.38304 8.74844,-4.07308 11.73878,-5.49846 2.99034,-1.42538 3.14412,-1.58535 3.17372,-1.73761 0.02961,-0.15227 -0.06381,-0.29878 -0.7617,-0.72598 -0.69788,-0.42719 -2.00176,-1.1357 -2.98726,-1.75745 -0.98549,-0.62175 -1.65339,-1.15459 -1.98753,-1.47181 -0.33414,-0.31722 -0.33138,-0.41861 3.47521,-3.00709 3.80659,-2.58848 11.41846,-7.66497 15.2378,-10.27887 3.81931,-2.6139 3.84282,-2.76646 3.80052,-2.87221 -0.0423,-0.10574 -0.15187,-0.16634 -4.03458,0.40465 -3.88272,0.57099 -11.53487,1.7728 -15.45996,2.35648 -3.9251,0.58369 -4.12298,0.55296 -4.23294,0.46416 -0.10995,-0.0888 -0.13349,-0.23359 0.54747,-1.96771 0.68096,-1.73411 2.06931,-5.05786 2.73336,-6.78778 0.66405,-1.72991 0.60215,-1.86677 0.48796,-1.95977 -0.1142,-0.0931 -0.28296,-0.14469 -5.05811,0.33324 -4.77516,0.47794 -14.1536,1.48553 -18.96691,1.96771 -4.81331,0.48218 -5.06108,0.43824 -5.20489,0.34514 -0.14381,-0.0931 -0.18641,-0.23687 0.45225,-2.174 0.63866,-1.93713 1.95926,-5.66521 2.54294,-7.64468 0.58369,-1.97947 0.43081,-2.20718 -5.554,-3.01503 -5.98481,-0.80785 -17.80047,-2.19629 -23.74732,-2.92379 -5.94684,-0.72749 -6.02472,-0.7969 -6.04592,-0.8688 -0.02115,-0.0719 0.0142,-0.14549 8.99351,-1.76538 8.97931,-1.6199 26.90468,-4.78354 35.98992,-6.39503 9.08523,-1.61152 9.33081,-1.67177 9.52114,-1.64637 0.19028,0.0254 0.32571,0.13598 0.06348,1.84472 -0.26224,1.70873 -0.9224,5.01401 -1.27346,6.81159 -0.35109,1.79759 -0.39281,2.08523 -0.38481,2.30094 0.0085,0.21571 0.06592,0.35995 0.15472,0.44035 0.08883,0.0804 0.20913,0.0993 2.78493,-0.28563 2.57579,-0.38488 7.60624,-1.17371 10.20746,-1.6305 2.60122,-0.4568 2.77044,-0.58323 2.87618,-0.71011 0.10574,-0.12689 0.14959,-0.25109 -0.59904,-6.37124 -0.74862,-6.12015 -2.28941,-18.23536 -3.05073,-24.39793 -0.76134,-6.16257 -0.74178,-6.37206 -0.67838,-6.48627 0.06346,-0.114 0.17223,-0.13218 0.27373,-0.11108 0.10151,0.0212 0.19561,0.0806 2.15813,3.70531 1.96252,3.62473 5.79242,10.81429 7.76766,14.46023 1.97523,3.64593 2.09471,3.74889 2.2216,3.75689 0.12689,0.008 0.25985,-0.0773 1.05923,-1.77331 0.79939,-1.69605 2.26429,-5.00495 3.04677,-6.69257 0.78248,-1.68765 0.88258,-1.75342 0.97988,-1.76142 0.09729,-0.008 0.19103,0.0399 1.39644,2.08275 1.20541,2.04286 3.522602,6.0794 4.740732,8.09694 1.21813,2.01757 1.33856,2.01851 1.44007,1.96771 0.10151,-0.0508 0.1861,-0.15514 1.087,-3.15388 0.90089,-2.99875 2.61844,-8.89338 3.44745,-11.91333 0.82901,-3.01996 0.77068,-3.16449 0.69028,-3.24909 -0.0803,-0.0846 -0.1827,-0.10914 -1.7138,0.6268 -1.5311,0.73595 -4.49287,2.23334 -6.05783,3.00313 -1.56496,0.76979 -1.73449,0.81193 -1.84869,0.76963 -0.11422,-0.0423 -0.17272,-0.16774 -0.20232,-0.2777 -0.0296,-0.10997 -0.03,-0.2039 2.4993,-5.61351 2.52927,-5.4096 7.58903,-16.137435 10.14795,-21.52175 2.55893,-5.384319 2.61862,-5.423318 2.67782,-5.419118 z m 24.04088,50.842908 c -0.19571,-0.004 -0.24362,0.0116 -0.28166,0.0397 -0.0761,0.0561 -0.11486,0.1661 -0.13489,0.22216 -0.02,0.0561 -0.0211,0.0581 0.11902,0.20629 0.14015,0.14816 0.42146,0.44183 0.74582,0.71012 0.32436,0.2683 0.69071,0.50978 1.07113,0.72202 0.38042,0.21223 0.7748,0.3956 1.07113,0.51573 0.29633,0.12013 0.49762,0.17859 0.73789,0.17058 0.24026,-0.008 0.52068,-0.0827 0.84103,-0.15075 0.32036,-0.0681 0.67888,-0.13091 1.05129,-0.13091 0.37242,0 0.7583,0.0625 1.12271,0.17058 0.3644,0.10812 0.70687,0.26002 1.05526,0.45623 0.34838,0.19622 0.69954,0.43767 0.98385,0.72598 0.28431,0.28832 0.50203,0.62335 0.69425,0.99576 0.19221,0.37241 0.35997,0.78173 0.47209,1.18617 0.11212,0.40445 0.17044,0.80588 0.18645,1.17428 0.016,0.36841 -0.0112,0.70317 -0.0873,1.02352 -0.0761,0.32035 -0.20158,0.62467 -0.28167,0.85293 -0.0801,0.22825 -0.11133,0.38106 0.34117,1.20998 0.4525,0.82891 1.38744,2.33318 1.92803,3.13405 0.54059,0.80087 0.68528,0.90028 0.7974,0.92831 0.11212,0.028 0.19361,-0.0134 0.2777,-0.27373 0.0841,-0.26028 0.16891,-0.73891 0.34911,-1.9082 0.1802,-1.16929 0.45504,-3.02953 0.58317,-4.03062 0.12814,-1.0011 0.11137,-1.14515 0.0754,-1.28932 -0.036,-0.14416 -0.0908,-0.2884 -0.98781,-1.26949 -0.897,-0.98108 -2.6376,-2.79995 -3.5506,-3.74498 -0.913,-0.94504 -0.99804,-1.01513 -1.17824,-1.06319 -0.1802,-0.048 -0.45559,-0.0745 -1.80108,-0.17059 -1.3455,-0.0961 -3.76099,-0.26105 -5.02637,-0.34514 -0.63269,-0.0421 -0.97856,-0.0639 -1.17428,-0.0674 z m -18.20522,1.60272 c -0.20372,-0.005 -0.31833,0.002 -0.42845,0.0198 -0.22024,0.036 -0.42016,0.10719 -1.73761,0.95211 -1.31744,0.84493 -3.75288,2.46318 -5.0343,3.36017 -1.28142,0.897 -1.4077,1.07353 -1.47577,1.24172 -0.0681,0.16818 -0.0748,0.33075 -0.13885,1.45197 -0.0641,1.12122 -0.18628,3.20298 -0.2063,4.32022 -0.02,1.11724 0.0587,1.26896 0.15076,1.32106 0.0921,0.0521 0.19641,0.002 0.8331,-0.61094 0.63668,-0.61266 1.80701,-1.78666 2.44772,-2.48343 0.64071,-0.69677 0.75353,-0.91428 0.77756,-1.14254 0.024,-0.22825 -0.0394,-0.46974 -0.0714,-0.72202 -0.032,-0.25228 -0.0319,-0.51682 -0.0119,-0.82516 0.02,-0.30834 0.0588,-0.65935 0.13488,-0.99972 0.0761,-0.34037 0.18882,-0.66736 0.36101,-0.99972 0.17219,-0.33237 0.40601,-0.67174 0.68632,-0.96005 0.28031,-0.28832 0.6077,-0.52577 0.95608,-0.72599 0.34838,-0.20022 0.71425,-0.35996 1.1227,-0.47209 0.40845,-0.1121 0.85711,-0.17846 1.26155,-0.18646 0.40445,-0.008 0.76684,0.0393 1.06716,0.0873 0.30033,0.048 0.5413,0.0989 0.77756,0.13092 0.23627,0.032 0.46615,0.0477 0.67839,0.0357 0.21223,-0.012 0.40748,-0.0527 0.95608,-0.36101 0.54859,-0.30834 1.45173,-0.88596 1.90423,-1.17427 0.45249,-0.28832 0.4521,-0.28908 0.46812,-0.34118 0.016,-0.0521 0.0481,-0.15389 -0.008,-0.24199 -0.0561,-0.0881 -0.19809,-0.16162 -1.07906,-0.27374 -0.88096,-0.11213 -2.50255,-0.26507 -3.43158,-0.34117 -0.46451,-0.038 -0.75632,-0.0545 -0.96005,-0.0595 z m 29.4005,18.22109 c -0.14708,0.005 -0.40056,0.0969 -0.98385,0.2896 -0.58329,0.19274 -1.49815,0.48584 -2.45169,0.71409 -0.95354,0.22824 -1.94475,0.39159 -2.79684,0.48796 -0.8521,0.0964 -1.56235,0.12695 -2.03911,0.12695 -0.47677,0 -0.71991,-0.0284 -0.94815,-0.0436 -0.22824,-0.0152 -0.44467,-0.0188 -0.60697,0.0674 -0.16231,0.0862 -0.27439,0.25997 -0.2896,0.43242 -0.0152,0.17245 0.0667,0.34457 0.14281,0.54746 0.0761,0.20288 0.149,0.43582 0.13885,0.63871 -0.0101,0.20288 -0.10364,0.37813 -0.39274,0.49986 -0.28911,0.12173 -0.77493,0.18997 -1.51545,0.21026 -0.74052,0.0203 -1.73352,-0.009 -2.71749,-0.15075 -0.98398,-0.14202 -1.9578,-0.39747 -2.71353,-0.63078 -0.75573,-0.23332 -1.29419,-0.44642 -1.6543,-0.61887 -0.36011,-0.17245 -0.54183,-0.30301 -0.74979,-0.36894 -0.20795,-0.0659 -0.44356,-0.0641 -0.61094,0.0119 -0.16738,0.0761 -0.26665,0.22868 -0.31737,0.38084 -0.0507,0.15216 -0.0527,0.30296 -0.0476,0.46019 0.005,0.15724 0.0153,0.32039 -0.0912,0.45226 -0.10652,0.13187 -0.32957,0.2325 -0.58317,0.25786 -0.2536,0.0254 -0.53585,-0.0264 -1.19014,-0.17852 -0.6543,-0.15216 -1.68025,-0.40514 -2.56278,-0.69425 -0.88253,-0.2891 -1.62345,-0.61183 -2.38425,-0.97195 -0.76081,-0.36011 -1.5401,-0.75802 -1.99151,-1.01162 -0.4514,-0.2536 -0.57272,-0.36317 -0.72995,-0.44432 -0.15723,-0.0812 -0.35277,-0.13188 -0.49986,0 -0.14709,0.13187 -0.24858,0.44606 -0.30944,0.8569 -0.0609,0.41083 -0.0795,0.91479 -0.11505,1.43214 -0.0355,0.51735 -0.0875,1.04491 -0.12298,1.42024 -0.0355,0.37533 -0.0553,0.59938 -0.11108,0.76169 -0.0558,0.1623 -0.14537,0.26333 -0.29753,0.32927 -0.15216,0.0659 -0.36573,0.0959 -0.59904,0.0198 -0.23331,-0.0761 -0.48572,-0.25765 -1.69794,-1.02353 -1.21222,-0.76588 -3.3831,-2.11361 -4.53444,-2.86427 -1.15134,-0.75065 -1.28636,-0.90356 -1.46388,-1.03543 -0.17752,-0.13188 -0.40058,-0.24506 -0.58317,-0.28563 -0.18259,-0.0406 -0.32395,-0.007 -0.38481,0.0992 -0.0609,0.10651 -0.0379,0.28954 -0.0278,0.38084 0.0101,0.0913 0.009,0.0908 0.11505,0.42052 0.10651,0.32968 0.31897,0.9863 0.603,1.72174 0.28404,0.73545 0.638,1.54712 1.11477,2.43979 0.47677,0.89268 1.0789,1.86891 1.75348,2.7413 0.67458,0.87238 1.4244,1.64194 1.86059,2.06291 0.43619,0.42098 0.55665,0.49212 0.67838,0.52763 0.12173,0.0355 0.24214,0.0362 0.36894,-0.0754 0.1268,-0.11158 0.25957,-0.33379 0.36101,-0.5316 0.10144,-0.19781 0.17164,-0.37175 0.25787,-0.46812 0.0862,-0.0964 0.19096,-0.11708 0.38878,-0.0714 0.19781,0.0456 0.4917,0.15687 1.25758,0.63871 0.76588,0.48185 2.00329,1.33285 2.98726,1.91613 0.98397,0.58328 1.71218,0.90109 2.22953,1.0989 0.51735,0.19781 0.8215,0.2768 1.0751,0.31737 0.2536,0.0406 0.45923,0.0426 0.5911,-0.0436 0.13188,-0.0862 0.18952,-0.26128 0.2301,-0.46416 0.0406,-0.20288 0.0633,-0.43296 0.0278,-0.63077 -0.0355,-0.19781 -0.12625,-0.36071 -0.20233,-0.5078 -0.0761,-0.14708 -0.13664,-0.27849 -0.14678,-0.42051 -0.0101,-0.14202 0.0299,-0.29704 0.11108,-0.40862 0.0811,-0.11159 0.20015,-0.18118 0.51969,-0.15075 0.31954,0.0304 0.83786,0.1639 1.38057,0.28563 0.54271,0.12173 1.11189,0.23136 1.9082,0.35308 0.79631,0.12173 1.81838,0.25344 2.777,0.27373 0.95861,0.0203 1.85113,-0.0713 2.58657,-0.16265 0.73545,-0.0913 1.31423,-0.18198 1.70984,-0.29357 0.39562,-0.11158 0.60823,-0.24475 0.72996,-0.43242 0.12172,-0.18767 0.15296,-0.4301 0.14281,-0.62284 -0.0101,-0.19274 -0.0606,-0.33293 -0.0555,-0.48002 0.005,-0.14709 0.0655,-0.30276 0.32928,-0.42449 0.26374,-0.12173 0.73078,-0.211 1.58289,-0.44432 0.8521,-0.23331 2.0888,-0.60832 3.06263,-0.94815 0.97383,-0.33983 1.68488,-0.64583 2.18193,-0.9045 0.49705,-0.25868 0.78123,-0.46867 0.92831,-0.66648 0.14708,-0.19781 0.15694,-0.38361 0.14679,-0.57127 -0.0102,-0.18766 -0.0405,-0.38075 -0.0913,-0.56334 -0.0507,-0.18259 -0.12011,-0.35343 -0.11505,-0.51573 0.005,-0.16229 0.0864,-0.3146 0.43639,-0.52763 0.34998,-0.21302 0.96632,-0.48468 1.57496,-0.80929 0.60864,-0.32461 1.2079,-0.70374 1.74554,-1.07907 0.53763,-0.37533 1.01387,-0.74898 1.31312,-1.00765 0.29925,-0.25867 0.42092,-0.40149 0.49193,-0.5435 0.071,-0.14202 0.0934,-0.28118 0.0833,-0.39275 -0.0101,-0.11157 -0.0512,-0.1955 -0.19836,-0.19042 z" />
    </g>
  </g>
</svg>
