<?xml version="1.0" encoding="UTF-8" standalone="no"?>
<!-- Created with Inkscape (http://www.inkscape.org/) -->

<svg
   version="1.1"
   id="svg1"
   width="127.5632mm"
   height="143.02107mm"
   viewBox="0 0 482.12864 540.55212"
   sodipodi:docname="CP_shield_F.Silk.svg"
   inkscape:version="1.4 (e7c3feb1, 2024-10-09)"
   xmlns:inkscape="http://www.inkscape.org/namespaces/inkscape"
   xmlns:sodipodi="http://sodipodi.sourceforge.net/DTD/sodipodi-0.dtd"
   xmlns="http://www.w3.org/2000/svg"
   xmlns:svg="http://www.w3.org/2000/svg">
  <sodipodi:namedview
     id="namedview1"
     pagecolor="#ffffff"
     bordercolor="#000000"
     borderopacity="0.25"
     inkscape:showpageshadow="2"
     inkscape:pageopacity="0.0"
     inkscape:pagecheckerboard="0"
     inkscape:deskcolor="#d1d1d1"
     inkscape:document-units="mm"
     inkscape:zoom="1.9073093"
     inkscape:cx="241.17746"
     inkscape:cy="270.27604"
     inkscape:window-width="1200"
     inkscape:window-height="1186"
     inkscape:window-x="4569"
     inkscape:window-y="146"
     inkscape:window-maximized="0"
     inkscape:current-layer="svg1" />
  <defs
     id="defs1" />
  <g
     id="layer7"
     transform="translate(-56.408481,-4.8010867)"
     style="display:inline">
    <path
       d="m 297.02736,55.822268 c 2.97923,6.743824 5.9654,13.485061 8.9375,20.232423 v 11.226563 l 0.39258,0.0039 c 3.23818,0.02573 6.23872,0.06717 6.92968,0.08008 V 76.12891 c 2.97882,-6.677683 5.95794,-13.355899 8.93751,-20.033204 -2.5714,-0.04667 -5.1434,-0.09012 -7.71485,-0.130859 -4.98688,13.501244 -2.4825,6.802104 -3.91797,10.679688 -0.30393,0.833163 -0.61524,1.668096 -0.92383,2.533203 l -0.61132,-1.751953 c -1.54683,-4.426655 -2.78502,-7.967313 -4.15039,-11.56836 h -0.26563 c -2.70719,-0.02085 -6.18443,-0.03384 -7.61328,-0.03516 z m -14.35547,0.04687 c -3.30381,0.02691 -6.59892,0.06513 -9.90039,0.119141 l -0.39063,0.0059 v 31.414064 l 0.40039,-0.0078 c 3.57526,-0.05659 7.1501,-0.0979 10.72071,-0.125 7.29667,-0.05653 11.65255,-3.595338 11.65429,-9.466797 0,-3.583339 -1.72435,-6.221024 -4.76367,-7.351563 1.97208,-1.20182 3.33985,-3.847725 3.33985,-6.634766 0,-2.160326 -0.62034,-3.907468 -1.84766,-5.195313 -1.79808,-1.897345 -4.84417,-2.782328 -9.21289,-2.757813 z m -29.63672,0.56836 c -2.33965,0.06376 -4.6804,0.139026 -7.01953,0.222656 v 11.207032 c 0.002,2.919757 0.34171,6.220428 0.63867,9.132813 L 244.56056,72.1543 c -2.55105,-5.049991 -5.10447,-10.098016 -7.6582,-15.146485 -0.89981,0.03372 -2.8141,0.114347 -6.94532,0.300782 l -0.37695,0.01953 v 31.412111 l 0.41211,-0.01563 c 2.2016,-0.100594 4.40159,-0.196991 6.60351,-0.289063 V 77.183598 c -0.002,-2.779669 -0.31497,-5.876915 -0.5957,-8.607423 -0.0139,-0.172052 -0.0332,-0.340627 -0.0488,-0.507812 l 2.10157,4.826172 c 2.55509,5.062437 5.10569,10.12865 7.66015,15.191407 2.31223,-0.07841 4.62301,-0.157109 6.93555,-0.22461 l 0.38672,-0.01172 z m 83.67774,0.02734 v 31.414064 l 0.38281,0.01367 c 2.84443,0.08848 5.68841,0.181933 8.53516,0.285157 0.27841,0.0092 0.55508,0.01563 0.82422,0.01563 4.18542,0 7.5007,-1.226645 9.86718,-3.642579 2.56371,-2.624832 3.86328,-6.531684 3.86328,-11.619141 0.002,-10.079062 -5.28779,-15.82528 -14.89062,-16.181641 -2.7261,-0.09825 -5.45199,-0.189937 -8.17578,-0.273438 z m 41.92383,1.34375 c -3.79334,-0.216273 -7.01206,0.904213 -9.38086,3.273437 -2.7145,2.71578 -4.15451,6.911204 -4.15625,12.128907 0,9.916854 5.29533,16.64025 13.49219,17.13672 0.31089,0.02028 0.61795,0.0293 0.92187,0.0293 3.33861,0 6.22879,-1.134519 8.40039,-3.304688 2.75163,-2.750176 4.20725,-6.992826 4.20899,-12.269532 0.005,-9.825906 -5.28947,-16.49522 -13.48633,-16.994141 z m -166.8672,0.460937 c -3.59215,0.216713 -7.18479,0.441556 -10.77539,0.685547 v 31.41797 c 2.43877,-0.164809 4.87891,-0.320916 7.31836,-0.474609 v -11.00586 c 0.98836,-0.05899 1.97808,-0.120702 2.96875,-0.179687 1.01124,1.957229 5.48378,10.626432 5.51563,10.6875 2.73353,-0.151125 5.46697,-0.298186 8.20117,-0.435547 -6.02878,-10.961157 -1.76052,-3.221184 -6.65039,-12.09375 3.1994,-1.872774 4.98459,-5.08399 4.98633,-9.279298 0,-2.914836 -0.79222,-5.190745 -2.36524,-6.763672 -1.93726,-1.944053 -5.04626,-2.804359 -9.19922,-2.558594 z m 186.33009,1.416016 v 31.419923 c 2.19203,0.161011 6.02902,0.459368 7.31641,0.564453 V 60.253909 c -1.26108,-0.101458 -4.57278,-0.362291 -7.31641,-0.568359 z m -211.15236,0.285156 -0.30859,0.02734 c -2.69337,0.207948 -5.38599,0.421248 -8.07812,0.646484 -3.10461,10.742058 -6.21052,21.484342 -9.3086,32.228517 4.50669,-0.403509 7.0188,-0.620101 7.53125,-0.660156 0.14944,-0.64358 1.3684,-5.7199 1.78125,-7.435547 2.72609,-0.226115 5.45713,-0.448806 8.18555,-0.660156 l 1.77344,7.150391 c 2.57781,-0.197574 5.15733,-0.388787 7.73633,-0.56836 -3.10363,-10.243119 -6.20468,-20.486837 -9.31251,-30.728517 z m 227.4258,1.027344 v 31.419923 c 2.33453,0.201224 4.6686,0.406784 7.00195,0.623047 V 81.734379 c 0,-2.784571 -0.31339,-5.929815 -0.5918,-8.707032 -0.0139,-0.1155 -0.0232,-0.233592 -0.0371,-0.351562 l 2.07618,5.048828 c 2.54273,5.390616 5.08331,10.783478 7.61914,16.177735 2.44235,0.244888 4.88444,0.484464 7.32617,0.736329 V 63.222659 l -0.35352,-0.03711 c -2.07184,-0.213821 -4.14143,-0.42491 -6.21093,-0.628906 l -0.43164,-0.04102 v 11.263673 c -0.005,2.868145 0.32681,6.156034 0.61914,9.058594 v 0.01563 l -2.06446,-5.072266 c -2.53859,-5.377639 -5.07823,-10.753536 -7.62109,-16.128907 -2.44361,-0.219758 -4.88771,-0.443096 -7.33203,-0.654297 z m -249.58595,0.865234 c -4.95076,0.452876 -15.36701,1.505272 -18.84571,1.892579 V 95.17188 c 9.46683,-0.998279 16.22165,-1.661381 19.28907,-1.931641 V 86.60352 c -3.99663,0.372982 -7.99064,0.763489 -11.98438,1.169922 v -6.203125 c 3.27344,-0.333769 6.54667,-0.659433 9.82227,-0.968751 v -6.638672 c -3.27508,0.314276 -6.54911,0.628779 -9.82227,0.964844 v -5.300781 c 5.59211,-0.56803 10.75166,-1.054993 11.54102,-1.125 z m 117.67578,0.16211 c 1.66991,0 2.85584,0.244493 3.51954,0.939453 0.41297,0.435014 0.60937,1.047696 0.60937,1.880859 0,2.135755 -1.4045,3.233297 -4.18164,3.257813 l -2.66016,0.02734 v -6.078126 z m 61.59766,1.02539 0.83399,0.02539 c 5.34547,0.196623 7.83878,3.215646 7.83008,9.5 0.002,3.364616 -0.72915,5.822251 -2.16993,7.296876 -1.283,1.312416 -3.13603,1.910304 -5.63476,1.814453 l -0.85938,-0.0293 z M 378.2715,64.5918 c 0.12628,7.76e-4 0.2431,0.0075 0.34961,0.01563 3.78869,0.228567 6.05078,3.869773 6.05078,9.736329 0.002,3.51698 -0.84617,6.302268 -2.38671,7.845703 -0.98371,0.983077 -2.23601,1.45088 -3.6211,1.347657 v -0.002 c -3.72836,-0.226115 -6.04751,-4.047614 -6.05273,-9.970703 0.005,-3.475194 0.80518,-6.107211 2.30859,-7.611329 1.14235,-1.141848 2.46758,-1.366756 3.35156,-1.361328 z m -166.22461,0.01758 c 1.63068,-0.01888 2.70421,0.280842 3.3457,0.923828 0.52666,0.525962 0.78125,1.315984 0.78125,2.41211 0,2.757549 -1.64923,4.254549 -4.9043,4.451172 l -2.92383,0.179687 v -7.759766 l 2.9668,-0.179687 c 0.25609,-0.01567 0.50142,-0.02465 0.73438,-0.02734 z m 243.21095,0.25 c -2.7927,0.228221 -5.30784,1.315572 -7.26368,3.169922 -2.83746,2.686269 -4.33398,6.747633 -4.33398,11.744141 -0.007,9.703033 5.66307,16.645439 14.44922,17.687501 0.5893,0.06875 1.17743,0.103516 1.75976,0.103516 3.15068,0 6.12268,-0.995196 8.03907,-2.75 l 0.13672,-0.123047 V 80.031254 c -3.31808,-0.419002 -6.99134,-0.865787 -10.89649,-1.324219 l -0.43945,-0.05469 v 6.486328 c 3.87968,0.463364 0.70007,0.07154 4.77148,0.566406 v 4.669922 c -0.6125,0.34169 -1.60209,0.487554 -2.61133,0.367188 -5.06939,-0.602145 -7.74804,-4.219807 -7.74804,-10.464844 -0.002,-3.140952 0.83249,-5.591147 2.41015,-7.087891 1.22964,-1.167406 2.87478,-1.659133 4.72852,-1.445313 2.32241,0.275276 3.75687,1.382591 5.19531,2.962891 l 0.29297,0.320312 3.94727,-4.61914 -0.23243,-0.279297 c -1.74006,-2.079222 -4.77111,-4.671245 -9.33007,-5.207032 -0.98198,-0.118583 -1.94411,-0.138573 -2.875,-0.0625 z m -327.24026,0.933594 c -2.31682,0.278654 -4.63387,0.561356 -6.94921,0.853516 l -0.34766,0.04102 v 31.42187 l 0.43945,-0.05469 c 6.06783,-0.756744 12.13898,-1.481428 18.21485,-2.162109 v -6.640625 l -0.4336,0.05078 c -3.64717,0.407973 -7.28593,0.831567 -10.92383,1.271484 z m 54.68165,1.578125 c 0.66239,2.797419 1.29649,5.603398 2.03125,8.38086 l 0.57031,2.291016 c -1.71918,0.135167 -3.43548,0.269623 -5.15234,0.412109 0.18561,-0.771727 0.37102,-1.546633 0.55664,-2.318359 0.69138,-2.718214 1.37468,-5.875361 1.99414,-8.765626 z m 100.31055,6.664063 c 2.12295,0 3.50303,0.342787 4.2832,1.164062 0.48953,0.513668 0.72635,1.218848 0.72461,2.160157 0,2.487195 -1.63831,3.707279 -5.01172,3.734375 l -3.25586,0.0332 v -7.058594 z"
       style="baseline-shift:baseline;display:inline;overflow:visible;vector-effect:none;enable-background:accumulate;stop-color:#000000;stop-opacity:1"
       id="path163" />
    <path
       d="m 286.93165,241.38673 c -25.43508,0 -47.86945,1.56637 -67.39062,4.00195 -24.86897,3.10655 -45.0139,7.62772 -60.6211,12.15235 -2.12936,0.61039 -28.32002,8.26124 -41.28516,16.11523 0,0 -0.31554,7.43449 1.18555,19.81641 0.84916,7.00447 2.28195,15.59415 4.68555,25.32422 3.28989,13.32324 8.40077,28.77713 16.32617,45.22657 9.5982,19.92711 23.32056,41.30687 42.95313,62.10156 58.35474,61.7745 108.33399,78.35157 108.33399,78.35157 0,0 53.45338,-14.81603 114.02149,-79.06055 19.556,-20.68162 33.17724,-42.17487 42.66406,-62.3379 8.7444,-18.57783 13.98178,-36.02357 17.09766,-50.6543 2.3224,-10.90241 3.47212,-20.23524 4.03125,-27.31836 0.72621,-9.25573 0.44922,-14.66992 0.44922,-14.66992 -0.17227,-0.0778 -51.7217,-23.25494 -147.41017,-28.1582 -11.10624,-0.57018 -22.78633,-0.89063 -35.04102,-0.89063 z m -80.73242,25.39453 5.25195,5.57618 72.36133,82.78125 24.70508,-25.16797 c 1.63928,-1.63138 3.27734,-3.26272 4.91797,-4.89258 l -20.4043,-23.45703 0.27735,-9.54297 21.16406,-19.91992 9.59961,0.31445 25.38672,28.70899 -1.01758,-10.95118 7.12891,-7.09375 11.98633,13.54883 -11.22461,11.17383 19.06641,21.8418 0.67382,0.85742 -0.27734,9.54102 -21.16211,19.92383 -9.60352,-0.31641 -19.02148,-21.66406 c -1.69654,1.6903 -3.39292,3.38043 -5.08985,5.07031 l -25.4707,25.34766 58.15625,66.48242 -14.08203,-0.0156 -26.875,-29.54493 -15.83399,-0.5664 c -9.84875,-0.32443 -21.87216,-4.35836 -29.21289,-8.63477 l -36.6543,36.47656 -12.00195,-13.53125 35.80078,-35.62695 -0.0449,-0.0508 c 0.0279,0.008 0.0543,0.008 0.082,0.0137 2.74698,0.6218 5.45802,1.03115 8.08203,1.20312 9.11328,0.59968 14.28389,-2.22051 14.84766,-2.54492 l 1.51172,-0.87695 3.0332,-1.75781 -5.15234,-0.5625 c -0.0882,-0.01 -7.16346,-0.79685 -15.10742,-2.64258 -2.21569,-0.51612 -4.49258,-1.10532 -6.71289,-1.79102 -7.67485,-2.37415 -12.88452,-5.23018 -15.92383,-8.73242 l -1.02344,-1.18359 -2.69727,-3.11524 c 3.5242,0.9585 8.5499,1.98653 14.35938,2.17578 8.71887,0.28755 13.62788,-2.41177 13.83203,-2.52734 l 0.43164,-0.24219 3.99414,-2.22656 -4.95703,-0.73633 c -0.12528,-0.0172 -14.43514,-2.13103 -22.09375,-3.65234 -8.21541,-1.627 -14.51249,-3.86323 -20.48438,-9.98047 -0.3341,-0.34407 -0.64344,-0.66583 -0.95898,-0.99024 -1.4083,-1.47217 -2.61053,-2.77941 -3.60352,-3.93945 5.82803,1.45988 11.06166,2.27397 15.57422,2.42383 6.86975,0.22611 11.21126,-1.38126 12.85157,-2.13086 1.95754,-1.03538 3.86947,-2.16946 5.78711,-3.28906 l -5.7168,-0.29493 c -0.1276,-0.007 -12.83191,-0.73193 -23.84766,-5.44335 -6.17839,-2.63713 -9.08532,-5.68306 -11.81836,-9.14844 -0.29929,-0.38584 -0.58085,-0.77813 -0.84765,-1.17383 -2.25512,-3.32774 -3.33797,-7.24877 -3.15235,-13.54297 z"
       style="baseline-shift:baseline;display:inline;overflow:visible;vector-effect:none;enable-background:accumulate;stop-color:#000000;stop-opacity:1"
       id="path167" />
    <path
       d="m 433.29104,197.52345 c -1.71241,0.0263 -3.47647,0.91392 -5.22657,2.62304 -1.46218,1.4288 -2.91597,2.86262 -4.36328,4.29883 l -0.15625,0.15235 13.67383,11.76758 0.17383,-0.17579 c 0.91005,-0.89987 1.82096,-1.79837 2.73633,-2.69726 l 0.15625,-0.1543 -4.79102,-4.12305 c 0.41629,-0.40693 1.04135,-1.01874 1.25,-1.22265 0.20867,-0.20393 1.80112,-1.94917 2.25586,-3.22852 0.20104,-0.56555 0.56369,-1.61991 0.38281,-2.42773 -0.26785,-1.19627 -0.91237,-2.1888 -2.08789,-3.20117 -1.26865,-1.09166 -2.6159,-1.63475 -4.0039,-1.61133 z m -0.44532,3.93164 c 0.46443,-0.008 0.92332,0.18909 1.4004,0.59961 1.20019,1.03275 1.11411,2.23507 -0.25586,3.57617 l -1.23047,1.20508 -3.37696,-2.9043 1.25,-1.22266 c 0.86153,-0.84464 1.56523,-1.24364 2.21289,-1.2539 z"
       style="baseline-shift:baseline;display:inline;overflow:visible;vector-effect:none;enable-background:accumulate;stop-color:#000000;stop-opacity:1"
       id="path165" />
    <rect
       style="display:none;fill:none;fill-opacity:1;stroke:#000000;stroke-width:2.08252;stroke-linejoin:round;stroke-dasharray:none;stroke-opacity:1"
       id="rect162"
       width="480.04614"
       height="538.4696"
       x="57.449741"
       y="5.8423467" />
  </g>
</svg>
